<?xml version="1.0" encoding="utf-8"?>
<!-- Generator: Adobe Illustrator 22.0.0, SVG Export Plug-In . SVG Version: 6.00 Build 0)  -->
<svg version="1.1" id="Layer_1" xmlns="http://www.w3.org/2000/svg" xmlns:xlink="http://www.w3.org/1999/xlink" x="0px" y="0px"
	 viewBox="0 0 324 168" style="enable-background:new 0 0 324 168;" xml:space="preserve">
<style type="text/css">
	.st0{fill:#EC6E23;}
	.st1{fill:#409737;}
	.st2{fill:#31448A;}
	.st3{fill:#344395;}
</style>
<g>
	<path class="st0" d="M161.3,27.7c3-1.8,6.8-3.5,11.9-5.2c3.9-1.3,5.5-0.8,9.5-1.8c1.9-0.5,13-3.3,16.8-4.3
		c3.9-1.1,8.8-1.8,14.8-2.2c6-0.4,14.4-1.1,18.5-1.1c4.1-0.2,13-0.4,18.1,0.2c5.1,0.5,4.6,0.4,5.8,1.2c1.1,0.9,1.6,0.6,1.8,0.3
		c0.2-0.3-1.1-0.9-1.1-0.9s1.8,0.3,3.6,0.7c1.8,0.4,3.2,0.4,3.8,0.6c0.5,0.1,0.4,0.7,1,0.7c0.5,0,2.4-0.1,3.9,0.4
		c1.5,0.5,2.4,0.4,3.1,0.7c0.7,0.3,0.7,0.6,1.1,0.6c0.5,0,0.4-0.4,1.4,0c0.9,0.3,2.8,0.7,4.9,1.4c2.2,0.7,3.2,0.9,4.3,1.4
		c1.2,0.4,1.8,1.5,2.4,1.6c0,0-1.4,0-2.8-0.1c-1.4-0.2-5.3-0.3-6-0.4c-1.1-0.1-2.3-1.2-3.9-1.5c-1.6-0.2-2.1,0.6-3.1,0.6
		c-1.1,0-0.4-1.1-1.9-1c-1.5,0.1-2.1,0.3-2.4,0.2c-0.3,0,0.1,0.7-0.1,0.8c-0.3,0-3.9-0.1-5-0.2c-1-0.2-2.8-1-4.9-1.1
		c-2.1-0.1-4.1,0.2-6.3,0.8c-2.2,0.6-5.9,0.1-10.7,0.3c-4.7,0.4-13.1,1.4-18.7,2.5c-5.6,1.1-7.6,0.5-12.1,1.5
		c-4.5,1.1-5.6,1.1-7.8,1.5c-2.2,0.4-7.4,2.4-10.1,3.6c-2.7,1.1-5.5,1.4-7,1.4c-1.5,0-2.5-0.5-4.5-0.5c-1.9,0-7.3,1.1-7.2,3.1
		c0,0-1,0-2,0.3c-1,0.3-3.5,1-4.8,1.7c-1.3,0.6-3,0-3.4-0.1c-0.4-0.1-1.2-0.2-1.6,0.1c0,0,0.1-0.5-0.2-0.9c-0.4-0.3-1.2-1.5-1.2-2.4
		C159.1,31.5,159.2,29,161.3,27.7L161.3,27.7z M161.3,27.7"/>
	<path class="st1" d="M299.9,36.5c1.1,0.7,2.4,1.5,2.4,1.7c0,0,0.4,0.3-2.5-0.4c-1.3-0.3-5.4-0.5-6-0.6c-1.9-0.3-2.9-1.4-4-1.6
		c-1.7-0.3-2.4,0.5-3.1,0.5c-1.3-0.1-0.2-1-1.6-1c-1.5,0.1-2.4,0.2-2.6,0.1c-0.4,0-0.2,0.8-0.4,0.8c-0.3,0.1-3.8-0.3-4.8-0.4
		c-1.6-0.2-3.1-1.1-5.3-1.1c-2.1-0.2-3.4,0.2-6.1,0.6c-2.4,0.4-6-0.2-10.9-0.1c-4.8,0.1-13.4,0.8-19.2,1.5c-5.8,0.8-7.8,0.3-12.4,1
		c-4.6,0.7-5.7,0.9-8,1.1c-2.3,0.3-7.5,1.9-10.3,2.9c-2.8,1-5.7,1.1-7.3,1c-1.5,0-2.4-0.5-4.5-0.6c-2,0-7.9,0.8-7.8,2.5
		c0,0-1,0-2.1,0.3c-1.1,0.2-3.2,0.7-4.6,1.2c-1.4,0.6-3.1,0-3.5-0.2c-0.3-0.1-1.3-0.2-1.6,0.1c0,0,0.1-0.5-0.2-0.8
		c-0.4-0.3-1.2-1.4-1.2-2.2c0-0.8,0.3-2.8,2.5-3.9c3.1-1.6,7-3.1,12.2-4.5c4-1.1,5.7-0.4,9.6-1.2c2-0.4,13.5-2.6,17.3-3.4
		c3.9-0.8,9-1.1,15.1-1.3c6.1-0.2,14.7-0.6,18.9-0.6c4.2,0,13.8,0.2,19,0.8c5.2,0.6,4.6,0.5,5.8,1.3c1.1,0.8,2.1,0.6,2.3,0.3
		c0.3-0.2-1-0.8-1-0.8s1,0.3,2.7,0.8c1.8,0.4,3.8,0.7,4.4,0.9c0.5,0.2,0.4,0.7,1,0.8c0.5,0,1.8-0.1,3.3,0.4c1.5,0.5,2.5,0.5,3.2,0.8
		c0.6,0.3,0.7,0.7,1.1,0.7c0.5,0,0.4-0.3,1.4,0.1c0.9,0.4,2.3,0.6,4.5,1.3c0.5,0.2,1.8,0.8,2.2,0.9
		C298.5,36.1,299.4,36.2,299.9,36.5L299.9,36.5z M299.9,36.5"/>
	<path class="st0" d="M290.7,21.5c0.1,0.3,0,0.5,0.3,0.5c0.3,0,0.4,0,0.7,0.1c0.3,0.1,0.3,0,0.4,0.3c0.1,0.2,0.3,0.3,0.5,0.3
		c0.3-0.1,0.4-0.4,0.2-0.4c-0.2-0.1-0.3-0.2-0.5-0.2c-0.3,0-0.3,0.1-0.4,0c-0.2-0.2-0.2-0.2-0.3-0.3c-0.2-0.3-0.2-0.3-0.5-0.3
		S290.7,21.5,290.7,21.5L290.7,21.5z M290.7,21.5"/>
	<path class="st0" d="M295.1,23.3c0.2,0.2-0.2,0.3,0.1,0.4c0.3,0.1,0.2,0,0.4,0.2c0.1,0.3,0.2,0.3,0.3,0.2c0.2,0,0.3,0.2,0.4-0.1
		c0-0.2,0-0.5-0.2-0.5c-0.3-0.1-0.2,0.1-0.3-0.1c-0.1-0.1,0-0.2-0.3-0.2C295.2,23.2,295,23.2,295.1,23.3L295.1,23.3z M295.1,23.3"/>
	<path class="st0" d="M282.8,23.3c0,0.2-0.1,0.4,0.1,0.5c0.3,0.1,0.5,0.1,0.9,0.1c0.4,0.1,0.5,0.2,1.1,0.3c0.4,0.2,0.7,0.3,1.1,0.3
		c0.4,0.1,0.5,0.2,1.1,0.3c0.5,0.1,0.5,0.2,0.8,0.3c0.4,0.1,0.6,0.3,1.1,0.3c0.4,0.1,0.5,0,1,0.1c0.5,0.2,0.5,0.1,0.9,0.3
		c0.3,0.2,0.7,0.3,1,0.3h0.5c0,0-0.3-0.3-0.3-0.4c-0.1-0.2-0.4-0.8-1-0.7c-0.8,0-1.1-0.1-1.7-0.2c-0.4,0-0.8,0-1.1-0.1
		c-0.3-0.1-0.7-0.3-0.8-0.4c-0.2-0.1-0.4-0.4-0.6-0.5c-0.2-0.2-0.2-0.4-0.5-0.5c-0.4-0.1-1.1-0.2-1.5-0.2c-0.4,0-1.2-0.1-1.5,0
		C282.9,23.1,282.9,23.1,282.8,23.3L282.8,23.3z M282.8,23.3"/>
	<path class="st0" d="M292.8,26.2c0.4-0.1,0.3-0.2,0.8-0.2c0.6,0,1.3,0.1,1.5,0.2c0.1,0,0.7-0.1,1.3,0.3c0.5,0.4,0.7,0.3,1,0.5
		c0.3,0.2,0.6,0.3,0.4,0.3c-0.2,0-0.8-0.1-1.1-0.2c-0.4-0.2-1-0.4-1.4-0.4c-0.5-0.1-0.8-0.1-1.1-0.2c-0.4-0.1-0.7-0.1-1-0.2
		C292.9,26.4,292.4,26.2,292.8,26.2L292.8,26.2z M292.8,26.2"/>
	<path class="st0" d="M303.5,28.2c-0.1,0.1,0.3,0.6,1,0.8c0.6,0.3,0.7,0.5,1.1,0.8c0.4,0.3,0.7,0.6,1,0.9c0.4,0.3,0.4,0.3,0.9,0.5
		c0.4,0.3,0.9,0.5,1.1,0.4c0.1-0.2,0-0.4-0.4-0.7c-0.3-0.3-1.4-1-1.9-1.4c-0.5-0.4-1.2-0.8-1.6-1C304.4,28.3,303.6,28.1,303.5,28.2
		L303.5,28.2z M303.5,28.2"/>
	<path class="st2" d="M34.9,57.6c-15.1,0-24.2,10.3-24.2,22.9c0,12.7,9.3,22.9,24.2,22.9c14.1,0,23.6-10.2,23.6-22.9
		C58.5,67.9,48.6,57.6,34.9,57.6 M34.6,93.9c-7.3,0-13.2-6-13.2-13.4c0-7.3,6-13.5,13.2-13.5c7.4,0,13,6.2,13,13.5
		C47.7,87.8,42,93.9,34.6,93.9L34.6,93.9z M34.6,93.9"/>
	<path class="st2" d="M62.4,58.4h10.2V66c0,0,2.6-8.3,14-8.3c11.3,0,15.6,7.3,15.6,16.6v28.4H91.6V79c0-5.2-1.4-11.8-8.4-11.8
		c-7.1,0-10.1,5.1-10.1,11.1v24.1H62.4V58.4z M62.4,58.4"/>
	<path class="st2" d="M129,94.9c-11.2,0-12.2-10.8-12.2-10.8h33.7c0-7.4,0-10.2-1.7-14.3c-1.8-4.1-6.1-12.6-18.9-12.6
		c-12.8,0-24,8.6-24,22.9c0,14.4,11.2,23.5,24.1,23.5c13,0,18.6-8.8,18.6-8.8l-7.8-5.9C140.9,88.9,136.8,95,129,94.9 M128.3,65.5
		c11.7,0,11.3,10.5,11.3,10.5H117C117,76,117.9,65.5,128.3,65.5L128.3,65.5z M128.3,65.5"/>
	<rect x="155.7" y="59.4" class="st2" width="5.9" height="43"/>
	<path class="st2" d="M189.6,63.9c12.3,0,11,13,11,17.9v20.7h5.9V75.7c0-5.7-0.4-9.3-4.7-13.6c-1.7-1.7-5.9-3.7-11.1-3.7
		c-2.3,0-6.4,0.5-10,3.1c-3.6,2.5-4.6,4.3-5,4.9v-7h-5.9v43h5.9V82.8c0-5.3,0.1-8.8,2.5-12.8C180.7,66.1,184.3,63.9,189.6,63.9
		L189.6,63.9z M189.6,63.9"/>
	<path class="st2" d="M250.8,40.5v26.3c-1.4-2.2-7.1-8.6-17.5-8.6C223,58.3,211,66,211,80.6c0,14.6,10.7,22.9,22.7,22.9
		c12.1,0,17.2-8.3,17.2-8.3v7.2h5.9V40.5H250.8 M234.2,98.2c-10,0-16.8-7.6-16.8-17.1c0-10.2,6.8-17.6,16.8-17.6
		c9.4,0,17,8.2,17,17.6C251.2,90.6,243.6,98.2,234.2,98.2L234.2,98.2z M234.2,98.2"/>
	<rect x="265" y="59.7" class="st2" width="5.8" height="42.7"/>
	<path class="st2" d="M272.2,46.6c0,2.5-2.1,4.6-4.6,4.6c-2.6,0-4.7-2.1-4.7-4.6c0-2.6,2.1-4.6,4.7-4.6
		C270.1,42,272.2,44,272.2,46.6L272.2,46.6z M272.2,46.6"/>
	<path class="st2" d="M163.3,46.6c0,2.5-2,4.6-4.6,4.6c-2.5,0-4.6-2.1-4.6-4.6c0-2.6,2.1-4.6,4.6-4.6C161.3,42,163.3,44,163.3,46.6
		L163.3,46.6z M163.3,46.6"/>
	<path class="st2" d="M312,91.3v-18c0-2.8-0.3-9.6-7.8-13.3c-7.4-3.7-21-0.9-25.8,4.5l3.6,4.5c0,0,3.2-3,7.2-4.3
		c3.9-1.3,13.2-1.7,15.8,4.1c0,0,1.4,2.7,1.4,7.6c0,0-7.5,0-11,0.3c-3.2,0.2-19,1-19,15.1c0,3,1.8,11.7,15.5,11.7
		c10.8,0,14.6-7.9,14.6-7.9s0.4,6.9,1,6.9l5.3-0.2C312.8,102.4,312,98.3,312,91.3 M293.4,98.2c-13.4,0-14.3-14.4-0.4-16.3
		c0,0,9.5-1.4,13.4-0.6C306.4,81.3,308.1,98.2,293.4,98.2L293.4,98.2z M293.4,98.2"/>
	<path class="st1" d="M298.2,39.4c0,0.2,0.3,0.2,0.9,0.3c0.7,0.1,2.1,0.4,2.6,0.6c0.4,0.2,1.2,0.6,2.1,1c0.8,0.3,0.4,0-0.5-0.5
		c-0.9-0.5-1.1-0.4-1.3-1c-0.3-0.5-0.4-0.8-1.2-0.8c-0.8,0-1.7-0.1-1.9-0.1C298.7,39,298.2,39.2,298.2,39.4L298.2,39.4z M298.2,39.4
		"/>
	<path class="st3" d="M159,145.3h-4.2v-36.5h4.5v13c1.9-2.4,4.3-3.6,7.2-3.6c1.6,0,3.2,0.3,4.6,1c1.4,0.7,2.6,1.6,3.6,2.8
		c0.9,1.2,1.7,2.6,2.2,4.3c0.5,1.7,0.8,3.5,0.8,5.4c0,4.5-1.1,8-3.4,10.5c-2.2,2.5-4.9,3.7-8.1,3.7c-3.1,0-5.6-1.3-7.3-3.9V145.3z
		 M158.9,131.9c0,3.2,0.4,5.5,1.3,6.9c1.4,2.3,3.3,3.5,5.7,3.5c2,0,3.6-0.8,5.1-2.5c1.4-1.7,2.1-4.2,2.1-7.6c0-3.4-0.7-6-2.1-7.6
		c-1.4-1.6-3-2.5-5-2.5c-2,0-3.7,0.9-5.1,2.6C159.6,126.2,158.9,128.6,158.9,131.9L158.9,131.9z M201.3,136.8l4.6,0.6
		c-0.7,2.7-2.1,4.8-4.1,6.3c-2,1.5-4.5,2.2-7.6,2.2c-3.9,0-6.9-1.2-9.2-3.6c-2.3-2.4-3.4-5.7-3.4-10c0-4.4,1.1-7.9,3.4-10.4
		c2.3-2.5,5.3-3.7,8.9-3.7c3.5,0,6.4,1.2,8.7,3.6c2.2,2.4,3.4,5.8,3.4,10.2c0,0.3,0,0.7,0,1.2h-19.7c0.2,2.9,1,5.1,2.5,6.7
		c1.5,1.5,3.3,2.3,5.5,2.3c1.6,0,3-0.4,4.2-1.3C199.7,140,200.6,138.7,201.3,136.8L201.3,136.8z M186.6,129.5h14.8
		c-0.2-2.2-0.8-3.9-1.7-5c-1.4-1.7-3.3-2.6-5.6-2.6c-2.1,0-3.8,0.7-5.2,2.1C187.5,125.4,186.7,127.2,186.6,129.5L186.6,129.5z
		 M211.6,145.3v-26.4h4v3.8c1.9-2.9,4.7-4.4,8.4-4.4c1.6,0,3.1,0.3,4.4,0.9c1.3,0.6,2.3,1.3,3,2.3c0.7,0.9,1.1,2,1.4,3.3
		c0.2,0.8,0.2,2.3,0.2,4.4v16.2h-4.5v-16.1c0-1.8-0.2-3.2-0.5-4.1c-0.4-0.9-1-1.6-1.9-2.2c-0.9-0.5-1.9-0.8-3.1-0.8
		c-1.9,0-3.6,0.6-4.9,1.8c-1.4,1.2-2.1,3.5-2.1,6.9v14.4H211.6z M239.1,147.5l4.4,0.6c0.2,1.3,0.7,2.3,1.5,2.9
		c1.1,0.8,2.6,1.2,4.6,1.2c2.1,0,3.7-0.4,4.8-1.2c1.1-0.8,1.9-2,2.3-3.5c0.2-0.9,0.3-2.8,0.3-5.7c-2,2.3-4.4,3.5-7.3,3.5
		c-3.6,0-6.4-1.3-8.4-3.9c-2-2.6-3-5.8-3-9.4c0-2.5,0.5-4.8,1.4-7c0.9-2.1,2.2-3.8,4-4.9c1.7-1.2,3.8-1.7,6.1-1.7
		c3.1,0,5.7,1.3,7.7,3.8v-3.2h4.1v22.8c0,4.1-0.4,7-1.3,8.7c-0.8,1.7-2.2,3.1-4,4.1c-1.8,1-4.1,1.5-6.7,1.5c-3.2,0-5.7-0.7-7.6-2.1
		C240,152.5,239,150.3,239.1,147.5L239.1,147.5z M242.8,131.6c0,3.5,0.7,6,2.1,7.6c1.4,1.6,3.1,2.4,5.2,2.4c2.1,0,3.8-0.8,5.2-2.4
		c1.4-1.6,2.1-4.1,2.1-7.5c0-3.2-0.7-5.7-2.2-7.3c-1.4-1.6-3.2-2.5-5.2-2.5c-2,0-3.7,0.8-5.1,2.4C243.5,126,242.8,128.4,242.8,131.6
		L242.8,131.6z M285.5,142c-1.7,1.4-3.3,2.4-4.8,3c-1.5,0.6-3.2,0.9-4.9,0.9c-2.9,0-5.1-0.7-6.7-2.1c-1.6-1.4-2.3-3.2-2.3-5.4
		c0-1.3,0.3-2.5,0.9-3.5c0.6-1.1,1.4-1.9,2.3-2.6c1-0.6,2-1.1,3.2-1.5c0.9-0.2,2.2-0.5,4-0.7c3.6-0.4,6.3-0.9,8-1.5c0-0.6,0-1,0-1.2
		c0-1.8-0.4-3.1-1.3-3.9c-1.1-1-2.8-1.5-5.1-1.5c-2.1,0-3.7,0.4-4.7,1.1c-1,0.7-1.7,2-2.2,3.9l-4.4-0.6c0.4-1.9,1.1-3.4,2-4.5
		c0.9-1.2,2.2-2,4-2.7c1.7-0.6,3.7-0.9,6-0.9c2.3,0,4.1,0.3,5.5,0.8c1.4,0.5,2.4,1.2,3.1,2c0.7,0.8,1.1,1.8,1.4,3
		c0.2,0.8,0.2,2.1,0.2,4.1v6c0,4.2,0.1,6.8,0.3,7.9c0.2,1.1,0.6,2.2,1.1,3.2h-4.7C286,144.3,285.7,143.3,285.5,142L285.5,142z
		 M285.2,132c-1.6,0.7-4.1,1.2-7.3,1.7c-1.8,0.3-3.1,0.6-3.9,0.9c-0.8,0.3-1.4,0.8-1.8,1.5c-0.4,0.6-0.6,1.3-0.6,2.1
		c0,1.2,0.4,2.2,1.4,3c0.9,0.8,2.2,1.2,4,1.2c1.7,0,3.3-0.4,4.6-1.1c1.3-0.8,2.3-1.8,3-3.1c0.5-1,0.7-2.5,0.7-4.5V132z M296.6,145.3
		v-36.5h4.5v36.5H296.6z M308,113.9v-5.2h4.5v5.2H308z M308,145.3v-26.4h4.5v26.4H308z M308,145.3"/>
</g>
</svg>
