<svg id="Layer_1" data-name="Layer 1" xmlns="http://www.w3.org/2000/svg" viewBox="0 0 1918 816.22"><defs><style>.cls-1{fill:none;}.cls-2{fill:#b7410e;}.cls-3{fill:#021e29;}</style></defs><title>dark-htbanglalogo</title><rect class="cls-1" x="0.38" width="1915.67" height="211.05"/><rect class="cls-1" x="0.38" width="1915.67" height="211.05"/><path class="cls-2" d="M481.11,249.17l68.27,77.1v12.85H448.18V408.2c0,282.72,8,394.37,8,394.37h-12C309.23,662.81,214.45,603.37,126.1,592.93L66.67,495.75C159.84,437.11,269.87,379.28,355,349.57V339.12H68.27L0,262V249.17ZM201.6,546.37c37,7.23,90.76,38.55,130.92,104.41h4V565.62c0-48.19,5.62-80.31,9.64-95.58C294,491.73,243.37,519.84,201.6,546.37Z"/><path class="cls-2" d="M696.36,249.17H706a1.74,1.74,0,0,1,1.28.57l67.33,76.05a1.68,1.68,0,0,1,.43,1.13v10.5a1.7,1.7,0,0,1-1.7,1.7H728.49c-31.31,0-42.78-13-49.3-21.05a1.66,1.66,0,0,0-1.32-.63h-2.3a1.7,1.7,0,0,0-1.7,1.7h0V427.48c0,270.48,9.37,359.67,11,373.19a1.71,1.71,0,0,1-1.49,1.89h-9.65a1.68,1.68,0,0,1-1.15-.45L560.41,699.49a1.66,1.66,0,0,1-.56-1.32c.53-11.07,6.39-137.14,6.39-218.49,0-109.23-34.54-140.56-57-140.56H506a1.67,1.67,0,0,1-1.29-.59l-64.94-76a1.65,1.65,0,0,1-.41-1.1V250.87a1.7,1.7,0,0,1,1.7-1.7H602.43"/><path class="cls-2" d="M916.43,501.37c-64.26,0-122.89-59.44-122.89-130.12,0-75.5,54.62-122.88,124.46-122.88,67.47,0,122.89,52.21,122.89,122.89C1040.92,445.15,988.71,501.37,916.43,501.37Zm220.88,295.57a40,40,0,0,1-23.3,19.28l-294.77-188,93.17-65ZM863.42,445.15c41,0,124.49-86.75,124.49-127.71,0-8.84-4.82-14.46-13.65-14.46-38.56,0-124.5,89.15-124.5,126.9C849.76,438.72,853.78,445.15,863.42,445.15Z"/><path class="cls-2" d="M1021.64,262V249.17H1624l68.27,77.1v12.85h-101.2V397c0,310,8,405.62,8,405.62h-12.85l-105.22-94V570.44c-1.61-47.38-20.08-71.48-38.55-71.48-17.67,0-35.34,23.29-35.34,70.68l-10.44,4.82s-40.16-74.7-119.68-74.7c-65.86,0-90.76,48.19-90.76,90.76,0,32.93,18.47,47.39,33.73,47.39,11.25,0,20.89-7.23,20.89-20.08,0-10.44-7.23-20.88-20.89-21.68,6.43-21.69,26.51-44.18,62.65-44.18,32.93,0,67.47,24.9,67.47,73.09,0,41-29.72,71.48-79.52,71.48-32.93,0-81.92-18.47-120.48-64.25-36.14-43.37-51.4-74.7-51.4-121.28,0-69.88,49-112.45,109.23-112.45,46.59,0,86.75,28.92,113.26,65.86h4c5.62-29.72,28.92-66.66,71.49-66.66,43.37,0,69.87,31.32,81.12,61H1481V339.12H1089.92Z"/><path class="cls-2" d="M1713.26,249.17h136.47l68.27,77.1v12.85h-46.59c-32.12,0-43.37-13.65-49.79-21.68h-4.82v110c0,296.37,11.24,375.09,11.24,375.09h-12L1702.74,699s6.43-134.13,6.43-219.27c0-109.23-34.54-140.56-57-140.56h-4L1582.3,262V249.17h38.56"/><path id="Path_2240" data-name="Path 2240" class="cls-3" d="M73,219.38l-4.3,3.27a37.42,37.42,0,0,0-22.44-6.55,58.69,58.69,0,0,0-26,6v-.25A54.41,54.41,0,0,1,50.77,213,35.38,35.38,0,0,1,73,219.32m1738.48-3.77a9.39,9.39,0,0,1,2-4.55,26.39,26.39,0,0,1,8.82-1.26,48.36,48.36,0,0,1,34.29,12.1l-4,2.52a47.42,47.42,0,0,0-31.77-10.59,24.86,24.86,0,0,0-9.33,1.76m-1094.87,0a9.4,9.4,0,0,1,2-4.54,26.36,26.36,0,0,1,8.82-1.26,45.92,45.92,0,0,1,32.27,12.1l-4,2.51a45.94,45.94,0,0,0-29.75-10.58,25.67,25.67,0,0,0-9.33,1.76m-421-16.64a124.62,124.62,0,0,0,24.71,20.93l-5.05,3.28A122.7,122.7,0,0,1,291,202.16Zm1202,0a124.56,124.56,0,0,0,24.7,20.93l-5,3.28a123,123,0,0,1-24.2-20.93Zm-437.4,0a124.56,124.56,0,0,0,24.7,20.93l-5,3.28a122.76,122.76,0,0,1-24.21-20.93Zm362.27-1.51a105.39,105.39,0,0,0,27,22.44l-5,3.28a115.44,115.44,0,0,1-26.47-22.44Zm-1202.27,0a110.11,110.11,0,0,0,27,22.44l-5,3.28a115.44,115.44,0,0,1-26.47-22.44Zm623.19-3.27a178.65,178.65,0,0,0,35.29,26.72l-5,3.52a173.17,173.17,0,0,1-34.77-27Zm102.86,29a82.66,82.66,0,0,1-23.7-21.19V177.2a189,189,0,0,0-1-22.19l5.3-2c.25,6,.75,13.86.75,21.68V200.2a76.41,76.41,0,0,0,23.7,19.41Zm933.28-20.38V159.09l-14.88-6.56,3-3.27,16.89,7.31v50.16l-.75.26Zm-1096.85,0V159.09l-14.88-6.56,3-3.27,16.89,7.31v50.16l-.75.26Zm176.72-41.35a85.32,85.32,0,0,1,1.76-21.68,127.37,127.37,0,0,0,22.44,4v52.9c-4,1.76-8.32,3.27-11.85,5a57.28,57.28,0,0,1-12.09-9.32v-31ZM101.46,114.72h36.3V119h-36.3ZM5.15,120.27l4.55-5.55h28V119H25.58A119.81,119.81,0,0,0,5.2,120.27m464.87,99.58-5,3.27a90.26,90.26,0,0,1-25.72-23.45v-72.1c0-17.14-.25-24.45-.75-30.51l5.55-2.26V197.89a82.48,82.48,0,0,0,26,21.94m455.3-106.14c8.82-6,17.14-12.61,25.46-19.41a89.25,89.25,0,0,0,32.77,13.87v30a88.25,88.25,0,0,1-58.23-24.46m815.05-19.4.75-.25a250.83,250.83,0,0,0,24.46,40.84l-25.18,13.61Zm112.68,66.8-3.27,3.53L1816.55,149V111.5a155.61,155.61,0,0,0-1-17.4l6-1.76v54.21Zm-1096.85,0L753,164.59,719.7,149V111.5a155.61,155.61,0,0,0-1-17.4l6-1.76v54.21Zm629.5,37.31a88.29,88.29,0,0,1-65.3,27.47,94.44,94.44,0,0,1-68.33-25.71,80.81,80.81,0,0,1-23.7-58.49,68.51,68.51,0,0,1,22.19-50.16l.25.25a70.11,70.11,0,0,0-17.39,47.65,80,80,0,0,0,23.7,57.48,88.28,88.28,0,0,0,65,24.2,91.69,91.69,0,0,0,63.54-22.69ZM843,93.24h-8.83l2.52-4.54H843ZM912.29,89l-4,5.3a140,140,0,0,0-23.7-1V88.72h27.23Zm831.44,134.87A320.43,320.43,0,0,1,1703.14,182V118.18c0-12.61-.76-23.69-1.26-28l5.3-1.26a207.78,207.78,0,0,1,1,24.7V180a326.28,326.28,0,0,0,40.34,40.84Zm-731.86-4-5,3.27a100.46,100.46,0,0,1-20.16-22.69V105.84a92.46,92.46,0,0,1-33.78-14.12l3.52-3.53a99.28,99.28,0,0,0,35,14.63v95.55a124.22,124.22,0,0,0,20.38,21.43m-619.41,0-5.05,3.27a118,118,0,0,1-21.18-19.18V100.35a44.45,44.45,0,0,0-12.1-11.85l4.55-2a49.36,49.36,0,0,1,12.61,12.6V202.18a113.37,113.37,0,0,0,21.18,17.65m764.37,0-5,3.27a118.73,118.73,0,0,1-21.18-19.18V100.35a44.45,44.45,0,0,0-12.1-11.85l4.55-2a49,49,0,0,1,12.61,12.6V202.18a122.62,122.62,0,0,0,21.18,17.65m437.65,0-5,3.27a118.73,118.73,0,0,1-21.18-19.18V100.35a44.45,44.45,0,0,0-12.1-11.85l4.55-2a49,49,0,0,1,12.61,12.6V202.18a122.62,122.62,0,0,0,21.18,17.65m68.06,0-5,3.27a118.73,118.73,0,0,1-21.18-19.18V100.35a43.57,43.57,0,0,0-12.62-12.1l4.55-2a55.86,55.86,0,0,1,12.86,12.86V202.19a135.85,135.85,0,0,0,21.43,17.65m-599.75-25.72V99.59A51.66,51.66,0,0,0,1052.18,88l4.3-2.27a64.3,64.3,0,0,1,11.34,11.85v92.77l-4.55,3.52h-.5ZM1425,192.36V99.59A59.44,59.44,0,0,0,1414.46,88l4.29-2.27a64.3,64.3,0,0,1,11.34,11.85v91.26l-4.55,3.52Zm-837.48,5.55a72.93,72.93,0,0,0,25.72,21.69l-5,3.27a78.35,78.35,0,0,1-25.71-23.45V95.8A47.52,47.52,0,0,0,571.18,88l4.29-2.27a63.4,63.4,0,0,1,11.84,8.82V197.9Zm912.86-3.77V99.6A51.88,51.88,0,0,0,1489.83,88l4.29-2.26a63.28,63.28,0,0,1,11.34,11.84v92.77l-4.54,3.53h-.5ZM223,192.37V99.6A59.41,59.41,0,0,0,212.43,88l4.29-2.26a63.93,63.93,0,0,1,11.34,11.84v91.26l-4.54,3.52Zm75.13,1.77V99.6A51.88,51.88,0,0,0,287.55,88l4.29-2.26a63.28,63.28,0,0,1,11.34,11.84v92.77l-4.54,3.53h-.5ZM650.57,92A41.72,41.72,0,0,0,643.26,87l4.29-2.26a37.88,37.88,0,0,1,7.81,6V198.37a85,85,0,0,0,20.17,21.43l-5,3.27a75.43,75.43,0,0,1-20.16-23.44V92ZM477.63,118a116.85,116.85,0,0,1,3.27-37.3c6.3,3.52,13.62,7.82,22.44,13.11v102.1c-4.54,1.76-9.33,3.52-13.62,5.55a55.81,55.81,0,0,1-12.09-9.83ZM1902.5,98.82l-3.52,4.55a18.75,18.75,0,0,1-6.56,1,53.24,53.24,0,0,1-40.84-19.18v-5h.75a54.55,54.55,0,0,0,41.6,19.91,26.26,26.26,0,0,0,8.57-1.76Zm-1096.65,0-3.52,4.55a18.75,18.75,0,0,1-6.56,1,53.24,53.24,0,0,1-40.84-19.18v-5h.76a54.51,54.51,0,0,0,41.59,19.91,26.15,26.15,0,0,0,8.57-1.76Zm962.27,34.77a306.68,306.68,0,0,1-27.73-47.15V78.63l.76-.26a289.59,289.59,0,0,0,31.26,53.19Zm-213.53,70.08-2-3.28c-2.51,1-5,2-7.31,3a30.78,30.78,0,0,1-6.55-4.54V96.52C1543,94.26,1548,92,1552.83,90a43.75,43.75,0,0,1,12.09,11.59V205.93a112.53,112.53,0,0,0,24.2,21.69h.76a358.35,358.35,0,0,1,36-24.21l-2-3.27-7.06,3a41.49,41.49,0,0,1-10.33-8.32V96.55c4.28-2.27,9.32-4.55,14.12-6.56a43.75,43.75,0,0,1,12.09,11.59V206a112.56,112.56,0,0,0,24.21,21.68h.75c13.12-9.83,23.45-17.14,38.58-26.47l-2-3.27a103.25,103.25,0,0,1-9.83,4.29,29.47,29.47,0,0,1-9.83-7.31V91.52a65.59,65.59,0,0,0-26-26.46h-.76A157.26,157.26,0,0,0,1606,90.52a61.85,61.85,0,0,0-25.46-25.46h-.76a150.21,150.21,0,0,0-41.34,25.17,94.64,94.64,0,0,0-23.2-25.17h-.76a216.69,216.69,0,0,0-41.59,28.48l2.52,3c3.27-2.27,7.31-4.54,10.78-6.56a85,85,0,0,1,10.34,10.79v95c-3,2.26-5.55,4.29-8.32,6.3v.76a143.12,143.12,0,0,0,28.48,24.7h.76a331.84,331.84,0,0,1,37-24M283,200.93l-2-3.27c-4.3,1.76-7.82,3.27-11.34,5.05a44.8,44.8,0,0,1-8.58-6V90.32a88.59,88.59,0,0,0-23.24-25.58h-.75a217,217,0,0,0-41.6,28.49l2.52,3a123.4,123.4,0,0,1,10.78-6.56,83.72,83.72,0,0,1,10.34,10.79v93a95.52,95.52,0,0,1-8.32,6.56v.75a125.27,125.27,0,0,0,30.76,26.47h.75c13.87-9.83,24.46-16.89,40.59-26.47m837.23,1-2-3.27c-4,1.76-7.32,3-10.79,4.54a32.81,32.81,0,0,1-6.31-4.54V96.2c4.29-2.27,9.33-4.54,14.12-6.56a43.93,43.93,0,0,1,12.1,11.59V205.61a112.25,112.25,0,0,0,24.2,21.68h.76a380.28,380.28,0,0,1,38.57-26.46l-2-3.28a104.37,104.37,0,0,1-9.83,4.29,29.47,29.47,0,0,1-9.83-7.31V91.18a65.65,65.65,0,0,0-26-26.44h-.75A150.54,150.54,0,0,0,1101,89.92a95,95,0,0,0-23.19-25.18h-.76a217.57,217.57,0,0,0-41.6,28.49l2.52,3a122.09,122.09,0,0,1,10.79-6.56,83.64,83.64,0,0,1,10.33,10.79v95a88.18,88.18,0,0,1-8.32,6.3v.76a143.78,143.78,0,0,0,28.49,24.7h.75a364.65,364.65,0,0,1,40.09-25.46M620.71,86.61a101.7,101.7,0,0,0-24.2-21.69h-.64c-14.62,8.83-23.7,15.89-38.57,26.47l2,3.28c3-1.77,6-3.28,8.82-5a52.18,52.18,0,0,1,10.79,7.81V201.05a89.14,89.14,0,0,0,28.77,26h.76c12.09-8.82,25.46-17.9,38.36-25.71A107.06,107.06,0,0,0,670.25,227H671c13.11-9.59,27.73-20.16,40.08-28l-2-3.27c-4,1.76-7.56,3.52-11.34,5.3a52.88,52.88,0,0,1-8.82-7.82V96.44c3-2.27,5.3-4.29,8.32-6.31v-.75a217,217,0,0,0-28.57-24.64h-.75c-15.13,8.83-25.47,15.59-40.09,25.72l2,3.27,9.83-5.3a42.18,42.18,0,0,1,7.32,5V195.57c-5,2-9.59,4-14.13,6a56.11,56.11,0,0,1-12.09-9.83Zm864.46,114.2-2-3.27c-4.28,1.76-7.82,3.27-11.34,5.05a44.42,44.42,0,0,1-8.57-6V90.21a88.55,88.55,0,0,0-23.15-25.47h-.76a217.19,217.19,0,0,0-41.59,28.49l2.51,3a125.07,125.07,0,0,1,10.79-6.56,83.72,83.72,0,0,1,10.34,10.79v93a95.52,95.52,0,0,1-8.32,6.56v.75a124.9,124.9,0,0,0,30.76,26.47h.75a455.49,455.49,0,0,1,40.59-26.47m-1129.67,1-2-3.27c-4,1.76-7.32,3-10.79,4.54a32.81,32.81,0,0,1-6.31-4.54V96.2c4.29-2.27,9.33-4.54,14.12-6.56a43.93,43.93,0,0,1,12.1,11.59V205.61a112.25,112.25,0,0,0,24.2,21.68h.76a380.28,380.28,0,0,1,38.57-26.46l-2-3.28a104.37,104.37,0,0,1-9.83,4.29,29.47,29.47,0,0,1-9.83-7.31V91.18a65.63,65.63,0,0,0-26-26.44h-.8a150.48,150.48,0,0,0-41.34,25.18,94.84,94.84,0,0,0-23.2-25.18h-.76a217.19,217.19,0,0,0-41.59,28.49l2.52,3a123.4,123.4,0,0,1,10.78-6.56,83.72,83.72,0,0,1,10.34,10.79v95a90.84,90.84,0,0,1-8.32,6.3v.76a143.44,143.44,0,0,0,28.48,24.7h.76a389.05,389.05,0,0,1,40.08-25.46m1384.8-37.32v-7.81l63-33.78v-1a555.28,555.28,0,0,1-36.55-57.48H1766a471.84,471.84,0,0,1-68.33,23.2,219.05,219.05,0,0,1,2,33.27v62.53a305.12,305.12,0,0,0,42.6,43.86h1.26A689.94,689.94,0,0,1,1803,192l-3-4.54c-9.59,4.54-17.4,8.57-25.18,12.09a251.89,251.89,0,0,1-34.53-35m-733.87,62.78h.75c13.12-9.59,27.73-20.16,40.09-28l-2-3.27c-4,1.76-7.56,3.52-11.34,5.3a52.88,52.88,0,0,1-8.82-7.82V115a108.14,108.14,0,0,1,2-28,199.74,199.74,0,0,1-54.45-22.44h-.76a245,245,0,0,1-55.21,48v1a77.51,77.51,0,0,0,39.08,24.71,331.19,331.19,0,0,1-38.36,15.58A172.4,172.4,0,0,1,919.15,179v25.18a81.43,81.43,0,0,0,26.72,23.69h.75c11.85-8.57,24.71-17.14,37.32-25.17a104.14,104.14,0,0,0,22.44,24.71m846.31.75a210.76,210.76,0,0,1,63.54-29.5,75.85,75.85,0,0,1-1.77-18.15V139.64l-39.07-17.14h-1L1863,135.11l-11.85-5.3V90.25a54.85,54.85,0,0,0,40.09,17.15,46.64,46.64,0,0,0,8.57-1A66.6,66.6,0,0,0,1918,65a17.1,17.1,0,0,0-5,0,35.8,35.8,0,0,1-1,8.57,25.17,25.17,0,0,1-9.59,2,39.26,39.26,0,0,1-27-11.59h-.75a203.75,203.75,0,0,1-63.53,27.72,112.32,112.32,0,0,1,1.76,22.19v37.31l36.55,16.64h1L1862,155l13.87,6v39.33A68.66,68.66,0,0,0,1831,184.77a46.64,46.64,0,0,0-8.57,1,67.19,67.19,0,0,0-18.15,41.6,17,17,0,0,0,5,0,36.32,36.32,0,0,1,1-8.57,25.13,25.13,0,0,1,9.59-2,45.59,45.59,0,0,1,32,11.59h.75Zm-1096.85,0a210.76,210.76,0,0,1,63.54-29.5,75.85,75.85,0,0,1-1.77-18.15V139.64L778.54,122.5h-1l-11.34,12.61-11.85-5.3V90.25a54.85,54.85,0,0,0,40.09,17.15,46.64,46.64,0,0,0,8.57-1A66.6,66.6,0,0,0,821.15,65a17.1,17.1,0,0,0-5,0,35.8,35.8,0,0,1-1,8.57,25.17,25.17,0,0,1-9.59,2,39.21,39.21,0,0,1-27-11.59h-.46a203.75,203.75,0,0,1-63.53,27.72A111.57,111.57,0,0,1,716.31,114v37.31l36.55,16.64h1L765.46,155l13.87,6v39.33a65.68,65.68,0,0,0-42.86-15.59,46.64,46.64,0,0,0-8.57,1,67.25,67.25,0,0,0-18.15,41.6,17.1,17.1,0,0,0,5,0,35.8,35.8,0,0,1,1-8.57,25.09,25.09,0,0,1,9.59-2,44,44,0,0,1,30,11.59h.51Zm545.05-42.35-.25-.25a55.21,55.21,0,0,0,2.26-22.19V90.22a133,133,0,0,0-2.26-24.71l5.29-2.26a148.05,148.05,0,0,1,2,24.7v71.6c-.25,17.14-1.51,20.68-7.06,26.22m-769.16,34-5.05,3.27a96.84,96.84,0,0,1-20.16-23.44V92c-51.93-29.5-57.73-32.77-62.78-35l-1.26-7.31h.25L511.3,90V197.36a101.2,101.2,0,0,0,20.38,22.44m807.48-151c0-11.84.26-15.88,5.3-20.93,2.27.25,7.06,1,9.83,1.26V191.52a80.8,80.8,0,0,1-22.19,3,90,90,0,0,1-31.26-5.29c14.12-5.55,28.77-11.85,40.09-17.4a179.08,179.08,0,0,1-1.77-24.7ZM846.05,82.13c0-13.87-.76-25.18-1.26-31.27l6-4.29H851V186l-4.55,3.53H846ZM61,40.78a60,60,0,0,0-15.88,46.9v63.53c0,29-1.26,40.59-21.18,63.78l-.25-.25c16.13-21.18,16.64-32.77,16.64-62V88.93c0-23.44,2.51-27.72,20.37-48.15Zm107.89,179-5,3.27a102,102,0,0,1-23.19-20.93V67.82a138.65,138.65,0,0,0-2.27-28.76l6-4.28a244.88,244.88,0,0,1,1.25,30.76V200.2a95.65,95.65,0,0,0,23.2,19.66M63.2,28.27l.25.25a32.67,32.67,0,0,1-18.91,7.31c-7.31,0-13.61-3.52-20.16-3.52a22,22,0,0,0-15.88,6,18.48,18.48,0,0,0-4,5.3H4.22a18.93,18.93,0,0,1,5.05-9.33,23.3,23.3,0,0,1,16.63-6C33,28.28,40,31.8,47.59,31.8a36.8,36.8,0,0,0,15.58-3.52m153.79-3a223.92,223.92,0,0,0,19.91,22.19l-4,2.51a171.34,171.34,0,0,1-19.4-22.19ZM1422.76,25a267.93,267.93,0,0,0,20.17,22.44l-4,2.51A199.09,199.09,0,0,1,1419,27.52ZM1235.45,66.85A37.63,37.63,0,0,1,1245,48a56.4,56.4,0,0,1,41.59-13.87c28.77,0,63,8.82,85.46,8.82a31.54,31.54,0,0,0,29-18.9l.76.25a32.86,32.86,0,0,1-31,22.69c-22.44,0-56.22-8.82-85.45-8.82a53.57,53.57,0,0,0-40.09,13.62,39.49,39.49,0,0,0-9.59,14.87h-.25ZM887.05,20.46l-1.26-.75C866.88,31.55,852,41.9,841.17,50.21a150,150,0,0,1,1.26,19.41,203.21,203.21,0,0,1-13.62,25.72l.76,1h12.86v94.79c-3,2.26-5.3,4-8.32,6v.76a177.07,177.07,0,0,0,38.57,30.76h.76a293,293,0,0,1,40.34-25.47l-2-3.27a96,96,0,0,0-8.82,4A148.89,148.89,0,0,1,884,192.09V96.53h1.76a216.08,216.08,0,0,1,23.45,1A129.49,129.49,0,0,0,928.65,67l-.75-.75A213,213,0,0,1,898.15,68H884a387.35,387.35,0,0,1,3-47.65m-360.56,207h.75c13.12-9.59,27.73-19.4,40.09-27.47l-2-3.33c-4,1.76-7.56,3.52-11.34,5.29a53.86,53.86,0,0,1-8.82-8.32V112.45c0-17.39.76-26,1.26-32.77C470,32.53,448.58,17.92,437,4.81l-1.26.25a245.12,245.12,0,0,0,5.55,54.21,278,278,0,0,1,33.28,17.89c-12.61,6.31-26.72,12.6-40.09,18.15a280.13,280.13,0,0,1,1.26,33.28V201.2a89.11,89.11,0,0,0,28.77,26h.76c11.84-8.57,25.17-17.39,38.07-25.46a100.29,100.29,0,0,0,23.19,25.71m-294-173.19h.76c12.09-8.32,20.16-14.12,30.76-22.69v-.76A324,324,0,0,0,240.85,4.3h-.75c-9.83,7.06-20.17,14.12-31,23.2v.75a182.83,182.83,0,0,0,23.45,26m1205.3,0h.76c12.09-8.32,20.16-14.12,30.76-22.69v-.76a324,324,0,0,0-23.2-26.47h-.75c-9.83,7.06-20.17,14.12-31,23.2v.75a199.9,199.9,0,0,0,23.45,26m-1336.9,152,.26-.76V122h36.55v81.93a124,124,0,0,0,26,23.45h.76a449.15,449.15,0,0,1,43.61-28.77l-2-3.53c-4.29,1.77-7.81,3.53-11.59,5.3a33.92,33.92,0,0,1-12.61-10.33V52.45A173.79,173.79,0,0,1,187.1,4.81l-1.26-.76a344.21,344.21,0,0,0-51.17,34.77,107.67,107.67,0,0,1,3,29.5V93.78h-36.3V50.17a115,115,0,0,1,6-45.12l-1-.26c-8.83,12.1-11.85,22.45-11.85,48V200.68a40.61,40.61,0,0,0-19.91-4.54,76,76,0,0,0-27.47,5.3l-.26-.26c32.27-28.76,33.28-33.78,33.28-54.71V57.23A92.6,92.6,0,0,1,90.51,6.31l-1-1a40.48,40.48,0,0,1-20.38,6c-9.83,0-23.2-5-35-5a32.56,32.56,0,0,0-23.2,8.82A30.6,30.6,0,0,0,2.06,36.5a42.82,42.82,0,0,0,2,12.86h.75A18.52,18.52,0,0,1,9.88,41a18.77,18.77,0,0,1,13.87-5.29c7.81,0,13.11,3.27,20.38,3.27A41.37,41.37,0,0,0,68.58,28.69l.25.25C39.08,60,38.07,65.49,38.07,89.44v4.29a124.43,124.43,0,0,1-13.62-1.26A305.45,305.45,0,0,0,0,123.23l.76.76A146.31,146.31,0,0,1,25,122.22H38.07v40.84c0,25.18-3.52,35.55-24.7,62.78l1,1.26a82.89,82.89,0,0,1,33-7.31,28.79,28.79,0,0,1,20.93,7.56h.75a149.11,149.11,0,0,1,31.77-21.18M1260.77,125.5A78.68,78.68,0,0,1,1285,69l-1-1.25a95.54,95.54,0,0,0-38.36,23.69,72.67,72.67,0,0,0-20.93,51.18,80,80,0,0,0,24.2,59,96.2,96.2,0,0,0,70.35,27A88.09,88.09,0,0,0,1384,203.43,75.7,75.7,0,0,0,1405.38,152l-1.76-.25a80.12,80.12,0,0,1-42.6,37.32V49.65c5,.25,7.81.25,9.32.25,19.18,0,33.78-12.09,41.35-49.14L1409.93,0a34,34,0,0,1-30.51,13.11c-22.19,0-58.49-8.82-85.46-8.82A70.76,70.76,0,0,0,1243,22.69,41.84,41.84,0,0,0,1230.17,54a53.28,53.28,0,0,0,4.3,20.37h1a41.59,41.59,0,0,1,10.79-20.16,51.58,51.58,0,0,1,38.36-13.62,382.06,382.06,0,0,1,54.21,5.55c-13.62,5-31,12.1-42.35,17.4a136.08,136.08,0,0,1,2.51,28v76.38c0,10.33-.25,14.63-3.27,18.4a55,55,0,0,1-14.62-9.83,69.18,69.18,0,0,1-20.38-50.92"/></svg>