<svg xmlns="http://www.w3.org/2000/svg" viewBox="0 0 170 98.39"><defs><style>.cls-1{fill:#fff;}.cls-2{fill:none;}</style></defs><title>hadithbd-logo-white</title><g id="Layer_2" data-name="Layer 2"><g id="Layer_1-2" data-name="Layer 1"><path class="cls-1" d="M25.81,84.81H23.45a11.48,11.48,0,0,0-4.22-3.57A18.06,18.06,0,0,0,13,79.37l-1.14-2.11a59.12,59.12,0,0,1,5.92-2.35q2.93-1,5.68-1.62v-.73H10.39V70.93H29v1.63H25.81ZM15,51.71c.16-1.25-.38-1.87-1.63-1.87a1.92,1.92,0,0,0-2.11,1.87c-.16,1.3.38,1.94,1.63,1.94A1.94,1.94,0,0,0,15,51.71Zm1.29-7.06q.33-2.19-1.86-2.19a2.3,2.3,0,0,0-2.52,2.19c-.21,1.51.41,2.27,1.87,2.27A2.32,2.32,0,0,0,16.31,44.65Zm.82-6.17a3.32,3.32,0,0,0,1.21-2.19,2.63,2.63,0,0,0-.57-2.11,2.54,2.54,0,0,0-2-1,3.35,3.35,0,0,0-2.28,1,3.31,3.31,0,0,0-1.21,2.11,2.74,2.74,0,0,0,.57,2.19,2.6,2.6,0,0,0,2,.9A3.45,3.45,0,0,0,17.13,38.48Zm1.62-9a4.52,4.52,0,0,0,1.46-2.6,3,3,0,0,0-.65-2.51,3.19,3.19,0,0,0-2.43-1.06,4,4,0,0,0-2.68,1.06,4.29,4.29,0,0,0-1.38,2.51,3.08,3.08,0,0,0,.65,2.6,2.93,2.93,0,0,0,2.35,1.05A4,4,0,0,0,18.75,29.48Zm1.86-10.06a4.85,4.85,0,0,0,1.71-3,3.73,3.73,0,0,0-.81-3,3.5,3.5,0,0,0-2.76-1.22,4.67,4.67,0,0,0-3.17,1.22,4.86,4.86,0,0,0-1.7,3,3.74,3.74,0,0,0,.81,3,3.37,3.37,0,0,0,2.76,1.3A4.46,4.46,0,0,0,20.61,19.42ZM23.45,75q-2.43.65-4.62,1.38c-1.46.49-2.87,1-4.22,1.62A19.8,19.8,0,0,1,20,79.7a9.9,9.9,0,0,1,3.66,2.67,9.75,9.75,0,0,1-.17-1.78ZM22.4,60.14a1.75,1.75,0,0,0,2-1.62c.16-1.13-.33-1.7-1.47-1.7a1.77,1.77,0,0,0-1.94,1.7C20.78,59.6,21.26,60.14,22.4,60.14Zm1.46-10.3a1.91,1.91,0,0,0-2.11,1.87c-.16,1.3.35,1.94,1.54,1.94a2,2,0,0,0,2.19-1.94C25.64,50.46,25.1,49.84,23.86,49.84Zm2.92-5.19c.21-1.46-.43-2.19-2-2.19a2.24,2.24,0,0,0-2.43,2.19c-.22,1.51.4,2.27,1.86,2.27A2.33,2.33,0,0,0,26.78,44.65Zm.81-6.17a3.34,3.34,0,0,0,1.22-2.19,2.51,2.51,0,0,0-.65-2.11,2.56,2.56,0,0,0-2-1,3.18,3.18,0,0,0-2.19.89,3.38,3.38,0,0,0-1.22,2.19,2.61,2.61,0,0,0,.65,2.19,2.39,2.39,0,0,0,1.95.9A3.43,3.43,0,0,0,27.59,38.48Zm1.62-9a4.21,4.21,0,0,0,1.46-2.6,2.83,2.83,0,0,0-.73-2.51,2.94,2.94,0,0,0-2.35-1.06,3.83,3.83,0,0,0-2.68,1.06,4.21,4.21,0,0,0-1.46,2.51,3.05,3.05,0,0,0,.73,2.6,3,3,0,0,0,2.36,1.05A3.8,3.8,0,0,0,29.21,29.48Zm1.87-10.06a4.88,4.88,0,0,0,1.7-3,3.56,3.56,0,0,0-3.65-4.22,5.1,5.1,0,0,0-4.87,4.22,3.59,3.59,0,0,0,.9,3A3.45,3.45,0,0,0,28,20.72,4.38,4.38,0,0,0,31.08,19.42Zm2.76,65.39H31.57V74.34A3.32,3.32,0,0,0,30.43,73a4,4,0,0,0-1.79-.4H28.4V70.93h.49a3.14,3.14,0,0,1,1.54.41,2.49,2.49,0,0,1,1.22,1,6.91,6.91,0,0,1-.08-1.21V69.47h1.62l.65,1.46H37v1.63H33.84Zm-1-24.67a1.7,1.7,0,0,0,1.87-1.62c.16-1.13-.3-1.7-1.38-1.7a1.78,1.78,0,0,0-2,1.7C31.24,59.6,31.73,60.14,32.86,60.14Zm6.9-30.66a4.68,4.68,0,0,0,1.38-2.6,3,3,0,0,0-.65-2.51,3.19,3.19,0,0,0-2.43-1.06,4,4,0,0,0-2.68,1.06,4.16,4.16,0,0,0-1.46,2.51,3,3,0,0,0,.73,2.6,3.18,3.18,0,0,0,2.43,1.05A4,4,0,0,0,39.76,29.48Zm1,48.27a25.28,25.28,0,0,1,5,3.08A26.81,26.81,0,0,1,49.74,85l-2,.73a26.1,26.1,0,0,0-4.06-3.9,29.86,29.86,0,0,0-4.54-2.59Zm5.84-5.92a2.45,2.45,0,0,1,1.22,2.11,2.51,2.51,0,0,1-1.22,2.19,5.5,5.5,0,0,1-6,0,2.51,2.51,0,0,1-1.22-2.19,2.57,2.57,0,0,1,1.22-2.11,5.45,5.45,0,0,1,6,0Zm-1.46,3.32a1.47,1.47,0,0,0,.65-1.21,1.4,1.4,0,0,0-.65-1.14,2.6,2.6,0,0,0-1.54-.41A2.85,2.85,0,0,0,42,72.8a1.4,1.4,0,0,0-.65,1.14A1.47,1.47,0,0,0,42,75.15a3.1,3.1,0,0,0,3.08,0Zm.17-16.63c.16-1.13-.36-1.7-1.55-1.7a1.73,1.73,0,0,0-1.86,1.7q-.24,1.62,1.38,1.62A1.8,1.8,0,0,0,45.28,58.52Zm4.86-29a4.68,4.68,0,0,0,1.38-2.6,3,3,0,0,0-3-3.57,4,4,0,0,0-2.68,1.06,4.35,4.35,0,0,0-1.38,2.51,2.86,2.86,0,0,0,.65,2.6,3,3,0,0,0,2.36,1.05A4,4,0,0,0,50.14,29.48ZM69.45,84.81H67.18V77.75a5,5,0,0,0-1.46-1.06,3.11,3.11,0,0,0-1.38-.32,2.38,2.38,0,0,0-1.54.41A1.46,1.46,0,0,0,62.31,78a4.45,4.45,0,0,0,.08.81l-1.94.08a3.52,3.52,0,0,0-1.22-2.1A4.17,4.17,0,0,0,56.79,76a3.08,3.08,0,0,0-1.86.49,1.43,1.43,0,0,0-.73,1.22A1.86,1.86,0,0,0,55,79.21a8.31,8.31,0,0,0,2.6,1.13L56.79,82A8.66,8.66,0,0,1,53,80.26a3.44,3.44,0,0,1-1.21-2.59,2.7,2.7,0,0,1,1.37-2.36,6.2,6.2,0,0,1,3.41-.89,8.84,8.84,0,0,1,2.6.33,7.27,7.27,0,0,1,2,1.21,2.19,2.19,0,0,1,1.13-.89,4.07,4.07,0,0,1,1.62-.32,5.22,5.22,0,0,1,1.63.24,6.27,6.27,0,0,1,1.7.73,10,10,0,0,1-.08-1.3V72.56H50.06V70.93H72.61v1.63H69.45ZM55.74,58.52c.16-1.13-.32-1.7-1.46-1.7a1.78,1.78,0,0,0-2,1.7c-.21,1.08.27,1.62,1.46,1.62A1.74,1.74,0,0,0,55.74,58.52Zm4.87-29a4.21,4.21,0,0,0,1.46-2.6,2.83,2.83,0,0,0-.73-2.51,3.19,3.19,0,0,0-2.44-1.06,4,4,0,0,0-2.67,1.06,4.29,4.29,0,0,0-1.38,2.51,3,3,0,0,0,3.08,3.65A4,4,0,0,0,60.61,29.48Zm5.51,29c.17-1.13-.29-1.7-1.37-1.7a1.77,1.77,0,0,0-2,1.7c-.16,1.08.32,1.62,1.46,1.62A1.7,1.7,0,0,0,66.12,58.52Zm1.14-6.81c.16-1.25-.38-1.87-1.62-1.87a1.91,1.91,0,0,0-2.11,1.87c-.16,1.3.38,1.94,1.62,1.94A1.94,1.94,0,0,0,67.26,51.71Zm1.3-7.06c.21-1.46-.41-2.19-1.87-2.19a2.28,2.28,0,0,0-2.51,2.19c-.22,1.51.43,2.27,1.94,2.27A2.29,2.29,0,0,0,68.56,44.65Zm.89-6.17a3.34,3.34,0,0,0,1.22-2.19A2.78,2.78,0,0,0,68,33.21a3.33,3.33,0,0,0-2.27,1,3.28,3.28,0,0,0-1.22,2.11,2.61,2.61,0,0,0,.65,2.19,2.39,2.39,0,0,0,1.95.9A3.75,3.75,0,0,0,69.45,38.48Zm1.62-9a4.52,4.52,0,0,0,1.46-2.6,2.8,2.8,0,0,0-.73-2.51,2.94,2.94,0,0,0-2.35-1.06,3.83,3.83,0,0,0-2.68,1.06,4.21,4.21,0,0,0-1.46,2.51,3.11,3.11,0,0,0,3.09,3.65A3.82,3.82,0,0,0,71.07,29.48Zm6.57,55.33H75.29V74.34A3.3,3.3,0,0,0,74.16,73a3.48,3.48,0,0,0-1.71-.4h-.32V70.93h.48a3.18,3.18,0,0,1,1.55.41,3,3,0,0,1,1.29,1,3.81,3.81,0,0,1-.16-1.21V69.47h1.62l.65,1.46h3.25v1.63H77.64ZM74,51.71c-.16,1.3.38,1.94,1.63,1.94a2,2,0,0,0,2.19-1.94c.16-1.25-.41-1.87-1.71-1.87A1.92,1.92,0,0,0,74,51.71Zm.65-7.06c-.21,1.51.41,2.27,1.87,2.27a2.36,2.36,0,0,0,2.59-2.27c.22-1.46-.43-2.19-1.94-2.19A2.3,2.3,0,0,0,74.64,44.65Zm1.54-10.47A3.27,3.27,0,0,0,75,36.29a2.57,2.57,0,0,0,.65,2.19,2.36,2.36,0,0,0,1.94.9,3.56,3.56,0,0,0,2.36-.9,3.32,3.32,0,0,0,1.21-2.19,2.51,2.51,0,0,0-.65-2.11,2.31,2.31,0,0,0-1.94-1A3.44,3.44,0,0,0,76.18,34.18ZM91,72.56H87.87V70.93h16.54v1.63H94.52a2.39,2.39,0,0,1,1,1.13,11.41,11.41,0,0,1,3.49.49,5.15,5.15,0,0,1,2.27,1.38,3,3,0,0,1-.73,4.7,8.36,8.36,0,0,1-4.22,1.3,28,28,0,0,1,4,1.46,28.38,28.38,0,0,1,4,2L103,86.19A47.66,47.66,0,0,0,96.3,83a39.41,39.41,0,0,0-6.73-1.62l.4-1.62a11.46,11.46,0,0,0,2,.4c.65.06,1.43.08,2.36.08a8.85,8.85,0,0,0,4-.73,2,2,0,0,0,1.38-1.86,2,2,0,0,0-1.14-1.79,6.21,6.21,0,0,0-3.08-.65,5.59,5.59,0,0,0-2.19.33,1,1,0,0,0-.73,1,1.7,1.7,0,0,0,.16.73l-2.19.33a3.53,3.53,0,0,1-.32-1.38A1.91,1.91,0,0,1,91,74.75a5.64,5.64,0,0,1,2.19-.9A3.37,3.37,0,0,0,91,72.56Zm1.38-14c.16-1.13-.3-1.7-1.38-1.7a1.77,1.77,0,0,0-2,1.7c-.16,1.08.33,1.62,1.46,1.62A1.7,1.7,0,0,0,92.33,58.52Zm1.13-6.81c.17-1.25-.35-1.87-1.54-1.87a2,2,0,0,0-2.19,1.87c-.16,1.3.38,1.94,1.62,1.94A1.93,1.93,0,0,0,93.46,51.71Zm1.38-7.06q.33-2.19-2-2.19a2.29,2.29,0,0,0-2.51,2.19c-.22,1.51.43,2.27,2,2.27A2.38,2.38,0,0,0,94.84,44.65Zm.81-6.17a3.3,3.3,0,0,0,1.22-2.19,2.51,2.51,0,0,0-.65-2.11,2.41,2.41,0,0,0-2-1,3.33,3.33,0,0,0-2.27,1,3.27,3.27,0,0,0-1.21,2.11,2.6,2.6,0,0,0,.64,2.19,2.39,2.39,0,0,0,2,.9A3.73,3.73,0,0,0,95.65,38.48Zm1.63-9a4.57,4.57,0,0,0,1.46-2.6A2.86,2.86,0,0,0,98,24.37a3,3,0,0,0-2.36-1.06A3.81,3.81,0,0,0,93,24.37a4.16,4.16,0,0,0-1.46,2.51,2.93,2.93,0,0,0,.73,2.6,3,3,0,0,0,2.43,1.05A3.74,3.74,0,0,0,97.28,29.48Zm1.86-10.06a5,5,0,0,0,1.62-3,3.66,3.66,0,0,0-.81-3,3.48,3.48,0,0,0-2.76-1.22,5.08,5.08,0,0,0-4.86,4.22,3.58,3.58,0,0,0,.89,3,3.45,3.45,0,0,0,2.84,1.3A4.38,4.38,0,0,0,99.14,19.42Zm1.7,40.72a1.74,1.74,0,0,0,2-1.62c.22-1.13-.27-1.7-1.46-1.7a1.73,1.73,0,0,0-1.86,1.7C99.3,59.6,99.76,60.14,100.84,60.14Zm1.47-10.3a1.91,1.91,0,0,0-2.11,1.87c-.17,1.3.37,1.94,1.62,1.94A2,2,0,0,0,104,51.71C104.17,50.46,103.6,49.84,102.31,49.84Zm3-5.19c.21-1.46-.41-2.19-1.87-2.19a2.34,2.34,0,0,0-2.6,2.19c-.21,1.51.41,2.27,1.87,2.27A2.37,2.37,0,0,0,105.31,44.65Zm.81-6.17a3.28,3.28,0,0,0,1.21-2.19,2.5,2.5,0,0,0-.64-2.11,2.34,2.34,0,0,0-2-1,3.61,3.61,0,0,0-2.35,1,3.28,3.28,0,0,0-1.22,2.11,2.69,2.69,0,0,0,2.68,3.09A3.43,3.43,0,0,0,106.12,38.48Zm1.62-9a4.68,4.68,0,0,0,1.38-2.6,3,3,0,0,0-3-3.57,4,4,0,0,0-2.68,1.06A4.16,4.16,0,0,0,102,26.88a3.08,3.08,0,0,0,.65,2.6,3.18,3.18,0,0,0,2.43,1.05A4,4,0,0,0,107.74,29.48Zm1.87-10.06a5.48,5.48,0,0,0,1.7-3,3.61,3.61,0,0,0-.89-3,3.5,3.5,0,0,0-2.76-1.22,4.83,4.83,0,0,0-3.16,1.22,5.46,5.46,0,0,0-1.71,3,3.62,3.62,0,0,0,.89,3,3.39,3.39,0,0,0,2.76,1.3A4.68,4.68,0,0,0,109.61,19.42Zm-.33,65.39h-2.35V74.34A3.25,3.25,0,0,0,105.79,73a3.42,3.42,0,0,0-1.7-.4h-.32V70.93h.48a3.12,3.12,0,0,1,1.54.41,3,3,0,0,1,1.3,1,3.81,3.81,0,0,1-.16-1.21V69.47h1.62l.65,1.46h3.25v1.63h-3.17Zm5.27-13.88a20.27,20.27,0,0,1-1.86-1.78,12.29,12.29,0,0,1,4-3.65,10.09,10.09,0,0,1,4.87-1.14,16.44,16.44,0,0,1,5.27.9,34.83,34.83,0,0,1,6.49,3.24L132,69.72a35.55,35.55,0,0,0-5.68-2.92,12.78,12.78,0,0,0-4.46-.81,8,8,0,0,0-3.74.81,8.43,8.43,0,0,0-2.83,2.59,8.78,8.78,0,0,0,1.62,1.54h3.49v1.63h-3.17V84.81H115V72.56H111.8V70.93Zm3.66-41.45a4.07,4.07,0,0,0,1.37-2.6,2.65,2.65,0,0,0-.64-2.51,3.19,3.19,0,0,0-2.44-1.06,4,4,0,0,0-2.67,1.06,4.29,4.29,0,0,0-1.38,2.51,3.07,3.07,0,0,0,.64,2.6,3.19,3.19,0,0,0,2.44,1.05A4,4,0,0,0,118.21,29.48Zm1.54,43.08V70.93h18.74v1.63H124.86V78.4a22.21,22.21,0,0,1,4.22-2.52,31.7,31.7,0,0,1,5.27-1.94l2,1.46a8.84,8.84,0,0,0-1.22,2.27,9,9,0,0,0-.33,2.51,8.78,8.78,0,0,0,.25,2.11,11.37,11.37,0,0,0,.81,2.27l-2.27.41a13.46,13.46,0,0,1-1.14-5.11,9,9,0,0,1,.25-2.11,6.59,6.59,0,0,1,.81-1.79,28.94,28.94,0,0,0-4.46,2,32.47,32.47,0,0,0-4.71,3l-1.7-.89V72.56Zm8.92-43.08a4.52,4.52,0,0,0,1.46-2.6,2.83,2.83,0,0,0-.73-2.51A3,3,0,0,0,127,23.31a3.73,3.73,0,0,0-2.6,1.06,4.16,4.16,0,0,0-1.46,2.51,3.08,3.08,0,0,0,.65,2.6A3.18,3.18,0,0,0,126,30.53,4,4,0,0,0,128.67,29.48Zm10.38,0a4.46,4.46,0,0,0,1.46-2.6,3,3,0,0,0-3-3.57,3.81,3.81,0,0,0-2.67,1.06,4.11,4.11,0,0,0-1.46,2.51,3.17,3.17,0,0,0,.64,2.6,3,3,0,0,0,2.36,1.05A3.8,3.8,0,0,0,139.05,29.48Zm.49,43.08h-1.7V70.93h21.09v1.63h-3.16V84.81h-2.28V77.67c-.48-.38-.89-.68-1.21-.89a2.13,2.13,0,0,0-1.06-.33,2,2,0,0,0-.81.16,3.24,3.24,0,0,0-.81.73,12.09,12.09,0,0,0-1.14,1.46A9.73,9.73,0,0,1,146,81.32a3.77,3.77,0,0,1-2.27.65,4.55,4.55,0,0,1-2.43-.65,9.48,9.48,0,0,1-2.19-1.95l1.86-.81a7,7,0,0,0,1.3,1.3,2.47,2.47,0,0,0,1.22.32,2.4,2.4,0,0,0,1.29-.4,5.26,5.26,0,0,0,1.38-1.38,7.12,7.12,0,0,0-1-2.76,3.43,3.43,0,0,0-1.87-1.22,21.83,21.83,0,0,0-4.13-.65Zm5.11-14c.22-1.13-.27-1.7-1.46-1.7a1.77,1.77,0,0,0-1.94,1.7c-.17,1.08.32,1.62,1.46,1.62A1.74,1.74,0,0,0,144.65,58.52Zm-3.32,14A10.51,10.51,0,0,1,146,73.77a4,4,0,0,1,1.62,3A6.42,6.42,0,0,1,149,75.23a2.64,2.64,0,0,1,1.62-.48,3.63,3.63,0,0,1,1.46.32,6.83,6.83,0,0,1,1.55.89,8.84,8.84,0,0,1-.09-1.38v-2Zm4.54-20.85c.16-1.25-.41-1.87-1.7-1.87a1.91,1.91,0,0,0-2.11,1.87c-.17,1.3.35,1.94,1.54,1.94A2,2,0,0,0,145.87,51.71Zm1.3-7.06q.32-2.19-1.95-2.19a2.28,2.28,0,0,0-2.51,2.19c-.22,1.51.4,2.27,1.86,2.27A2.37,2.37,0,0,0,147.17,44.65Zm.73-6.17a3.32,3.32,0,0,0,1.21-2.19,2.51,2.51,0,0,0-.65-2.11,2.31,2.31,0,0,0-1.94-1,3.47,3.47,0,0,0-2.27.89A3.34,3.34,0,0,0,143,36.29a2.61,2.61,0,0,0,.65,2.19,2.47,2.47,0,0,0,2,.9A3.15,3.15,0,0,0,147.9,38.48Zm1.7-9a4.68,4.68,0,0,0,1.38-2.6,3,3,0,0,0-.65-2.51,3.19,3.19,0,0,0-2.43-1.06,4,4,0,0,0-2.68,1.06,4.16,4.16,0,0,0-1.46,2.51,3.05,3.05,0,0,0,.73,2.6,3.18,3.18,0,0,0,2.43,1.05A4,4,0,0,0,149.6,29.48Zm5.52,29c.16-1.13-.3-1.7-1.38-1.7a1.82,1.82,0,0,0-2,1.7c-.16,1.08.32,1.62,1.46,1.62A1.74,1.74,0,0,0,155.12,58.52Zm1.13-6.81c.17-1.25-.35-1.87-1.54-1.87a2,2,0,0,0-2.27,1.87c-.16,1.3.41,1.94,1.7,1.94A1.93,1.93,0,0,0,156.25,51.71Zm1.3-7.06c.22-1.46-.41-2.19-1.87-2.19a2.39,2.39,0,0,0-2.59,2.19c-.22,1.51.46,2.27,2,2.27A2.29,2.29,0,0,0,157.55,44.65Zm.89-6.17a3.45,3.45,0,0,0,1.14-2.19,2.63,2.63,0,0,0-.57-2.11,2.56,2.56,0,0,0-2-1,3.33,3.33,0,0,0-2.27,1,3.75,3.75,0,0,0-1.3,2.11,3.07,3.07,0,0,0,.65,2.19,2.62,2.62,0,0,0,2,.9A3.51,3.51,0,0,0,158.44,38.48Z"/><rect class="cls-2" width="170" height="98.39"/></g></g></svg>