<svg width="224" height="95" viewBox="0 0 224 95" xmlns="http://www.w3.org/2000/svg"><title>bn-logo</title><g fill="none" fill-rule="evenodd"><g fill="#2F5703"><path d="M85.693 19.768c.322 2.899 1.895 5.21 4.282 5.21 1.289 0 1.857-.644 1.857-1.364 0-.36-.114-.53-.19-.644l-1.572-.19c-1.705-.208-2.388-.966-2.388-2.14 0-1.592 1.156-2.9 2.255-3.77H82.7v-2.066h17.64v2.065h-6.48c.36 1.004 1.478 1.99 3.695 1.99h.625l.91 1.97c-.701 1.25-1.004 2.88-1.004 4.453v2.5H95.47v-2.69c0-1.402.246-2.956.947-4.017-2.52-.284-3.922-1.724-4.471-2.974-1.005.758-1.46 1.478-1.46 2.027 0 .246.114.455.74.53l2.065.247c.644.644 1.175 1.516 1.175 2.653 0 1.818-1.497 3.789-4.453 3.789-3.676 0-6.177-3.05-6.726-6.707l2.406-.872zm3.43-6.518c-1.535-1.137-3.43-1.724-5.06-1.724-1.591 0-2.5.815-2.5 2.217v1.06h1.894v2.066h-1.895v10.649H78.93V16.869h-1.895v-2.065h1.895V13.59c0-2.463 1.78-4.396 5.078-4.396 2.69 0 5.002.986 6.574 2.18l-1.459 1.875zm18.924 3.62c-.815.7-1.459 2.064-1.459 2.974 0 .511.455.663 1.08.739l2.16.265c-1.118-.853-1.648-2.274-1.705-3.979h-.076zm5.609 10.08c-1.327 0-2.274-.475-2.918-1.251-.701.947-1.933 1.648-3.733 1.648-3.676 0-6.101-3.088-6.65-6.745l2.292-.834c.322 2.899 1.933 5.21 4.32 5.21 1.289 0 1.952-.644 1.952-1.364 0-.36-.114-.53-.19-.644l-1.819-.227c-1.705-.209-2.804-1.004-2.804-2.615 0-1.175.474-2.482 1.023-3.259h-5.551v-2.065h17.886v2.065h-7.067c.056.72.246 1.307.568 1.8.587-.568 1.383-.91 2.406-.91 1.838 0 2.861 1.175 2.861 2.54 0 .928-.53 1.667-1.383 1.951v.076c.929.246 1.61.947 1.61 2.027 0 1.27-.947 2.596-2.803 2.596zm-.569-7.22c-.853 0-1.724.777-1.724 2.596 0 1.592.777 2.615 1.933 2.615.511 0 .89-.285.89-.796 0-.606-.512-.89-1.27-.89h-.435v-1.839h.436c.682 0 1.06-.36 1.06-.947 0-.455-.34-.739-.89-.739zm5.627-6.67v-.189h2.54v1.933h1.894v2.065h-1.895v10.649h-2.652v-8.432c0-1.857-.625-2.217-1.82-2.217h-.075v-2.065h.777c.871 0 1.326.379 1.554.663h.132a6.801 6.801 0 0 1-.455-2.406zm7.462 12.373c-2.027 0-3.145-1.231-3.6-2.444l1.99-1.213c.303.683.682 1.346 1.591 1.346.834 0 1.27-.626 1.27-1.402 0-1.402-.872-2.426-1.8-3.373l-.72-.739v-.739h-2.52v-2.065h13.964v2.065h-1.876v10.649h-2.672v-4.624c0-.416-.246-.682-.644-.682-.7 0-1.175.853-1.933 1.687-.871.966-1.97 1.534-3.05 1.534zm5.684-5.608a28.834 28.834 0 0 1-.057-1.686v-1.27h-4.15v.076l.531.644c.645.796 1.005 1.478 1.175 2.122.076.284.114.569.133.834.398-.36.966-.853 1.63-.853.321 0 .51.038.738.133zm5.76-6.764v-.19h2.54v1.933h1.894v2.065h-1.895v10.649h-2.653v-8.432c0-1.857-.625-2.217-1.818-2.217h-.076v-2.065h.777c.871 0 1.326.379 1.553.663h.133a6.801 6.801 0 0 1-.455-2.406zm11.754 6.31c.626 3.429 2.312 5.91 4.302 5.91 1.06 0 1.648-.643 1.648-1.553 0-.89-.739-1.535-1.364-1.781a12.09 12.09 0 0 1-1.25.417l-1.308-2.103c2.236-.512 2.956-1.383 2.956-2.18 0-.795-.588-1.136-1.27-1.136-.758 0-1.478.474-2.027 1.06l-1.687-1.742c.834-.91 2.028-1.61 3.676-1.61 2.009 0 3.866 1.212 3.866 3.486 0 .966-.342 1.78-.967 2.463.91.53 1.952 1.516 1.952 3.24 0 2.027-1.478 3.865-4.207 3.865-3.96 0-5.949-4.168-6.726-7.39l2.406-.947zM6.664 20.431c0-1.61 1.307-2.956 3.581-2.956 2.387 0 3.922 1.649 3.922 3.923 0 2.235-1.535 3.372-3.373 3.637v.076c.758.17 1.308.38 2.558 1.1l1.365.795-1.744 1.762c-4.054-2.463-4.528-2.861-6.328-2.994V23.69h1.288c2.274 0 3.676-.796 3.676-2.292 0-.929-.492-1.592-1.383-1.592-.55 0-.947.322-.947.853 0 .397.227.72.739.909l-1.744 1.307c-1.098-.416-1.61-1.364-1.61-2.444zM5.565 9.441l2.52-.397a2.999 2.999 0 0 0-.095.72c0 .682.322 1.345 1.8 1.345h.569c2.065 0 3.884 1.118 3.884 3.354 0 .113 0 .227-.019.34h1.535v2.066H5.224v-2.065h6.48v-.17c0-1.024-.625-1.327-1.857-1.327h-.17c-3.203 0-4.15-1.667-4.15-3.297 0-.19.02-.379.038-.568zm13.221 15.992c-2.027 0-3.145-1.231-3.6-2.444l1.99-1.213c.303.683.682 1.346 1.592 1.346.833 0 1.269-.626 1.269-1.402 0-1.402-.872-2.426-1.8-3.373l-.72-.739v-.739h-2.52v-2.065h13.964v2.065h-1.876v10.649h-2.671v-4.624c0-.416-.246-.682-.644-.682-.701 0-1.175.853-1.933 1.687-.872.966-1.97 1.534-3.05 1.534zm5.685-5.608a28.834 28.834 0 0 1-.057-1.686v-1.27h-4.15v.076l.53.644c.645.796 1.005 1.478 1.176 2.122.075.284.113.569.132.834.398-.36.967-.853 1.63-.853.322 0 .511.038.739.133zm10.966 6.271c-.435.133-.947.209-1.572.209-2.842 0-4.529-1.8-4.529-4.169 0-2.463 1.762-3.884 3.638-3.884 1.554 0 2.407.853 2.634 1.535h.076c.19-.834 1.023-1.573 2.084-1.573.758 0 1.288.304 1.44.455h.095v-1.8H28.218v-2.065h15.594v2.065h-1.895v10.649h-2.614v-6.329c-.17-.36-.626-.663-1.194-.663-.777 0-1.307.568-1.307 1.535v.606h-2.426v-.606c0-1.1-.511-1.478-1.155-1.478-.645 0-1.27.492-1.27 1.497 0 1.231.89 1.97 2.065 1.97.38 0 .777-.076 1.1-.227l.321 2.273zm9.626-13.035v-.19h2.539v1.933h1.894v2.065h-1.894v10.649h-2.653v-8.432c0-1.857-.625-2.217-1.819-2.217h-.076v-2.065h.777c.872 0 1.326.379 1.554.663h.132a6.801 6.801 0 0 1-.454-2.406zm11.933 10.004l.076-.038s-.19-1.042-.19-3.543v-2.615h-4.055v.095c.53.53 1.535 2.027 1.649 4.187a5.777 5.777 0 0 1 2.52 1.914zm4.32-6.196H59.42v10.649h-2.406c-.455-1.63-1.516-3.165-2.937-4.017-.474.89-1.27 1.307-1.99 1.307-.966 0-1.819-.606-1.819-1.743 0-1.004.645-1.82 1.706-2.122-.17-1.554-1.118-2.994-2.274-3.657v-.417h-.966v-2.065h12.58v2.065zM170.944 19.768c.323 2.899 1.895 5.21 4.283 5.21 1.288 0 1.856-.644 1.856-1.364 0-.36-.113-.53-.189-.644l-1.573-.19c-1.705-.208-2.387-.966-2.387-2.14 0-1.592 1.156-2.9 2.255-3.77h-7.238v-2.066h17.64v2.065h-6.48c.36 1.004 1.478 1.99 3.695 1.99h.625l.91 1.97c-.702 1.25-1.005 2.88-1.005 4.453v2.5h-2.615v-2.69c0-1.402.247-2.956.948-4.017-2.52-.284-3.922-1.724-4.472-2.974-1.004.758-1.459 1.478-1.459 2.027 0 .246.114.455.74.53l2.064.247c.645.644 1.175 1.516 1.175 2.653 0 1.818-1.497 3.789-4.453 3.789-3.675 0-6.176-3.05-6.726-6.707l2.406-.872zm20.934-2.899h-7.049v-2.065h11.54v2.065h-1.896v8.678l.929.55-1.687 1.724-7.844-4.567v-2.103c.834-.89 3.145-2.804 6.007-3.58v-.702zm0 3.183c-1.554.588-2.9 1.61-3.316 2.084l3.467 2.009h.076c-.152-.474-.227-1.8-.227-2.956v-1.137zm5.74-6.991v-.19h2.54v1.933h1.894v2.065h-1.894v10.649h-2.653v-8.432c0-1.857-.625-2.217-1.819-2.217h-.076v-2.065h.777c.872 0 1.326.379 1.554.663h.132a6.801 6.801 0 0 1-.454-2.406zm10.721 3.808h-7.048v-2.065h11.539v2.065h-1.895v8.678l.928.55-1.686 1.724-7.844-4.567v-2.103c.833-.89 3.145-2.804 6.006-3.58v-.702zm0 3.183c-1.554.588-2.899 1.61-3.316 2.084l3.468 2.009h.075c-.151-.474-.227-1.8-.227-2.956v-1.137z"/></g><path d="M71.713 79.435c0-1.23.99-2.25 2.475-2.25 1.755 0 2.97 1.335 2.97 3.12 0 .525-.09 1.02-.255 1.455l1.59 1.035.045-.015c-.105-.615-.15-1.71-.15-2.58v-3.66H67.183v-1.38h14.58c.72 0 1.05.33 1.215.525h.09c-.15-.39-.3-1.02-.3-1.785v-.255h1.65v1.515h1.62v1.38h-1.62v8.52h-1.71V78.1c0-1.245-.465-1.56-1.35-1.56h-1.275v7.215l.675.42-1.14 1.11-3.54-2.265c-.66.615-1.59.975-2.73.975-2.985 0-4.74-2.43-5.535-5.775l1.545-.72c.585 2.82 1.845 4.965 3.99 4.965 1.38 0 2.145-.915 2.145-2.175 0-.96-.48-1.545-1.185-1.545-.54 0-.87.33-.87.825 0 .36.195.675.6.855l-1.14.87c-.765-.3-1.185-1.065-1.185-1.86zm19.242 4.29a3.86 3.86 0 0 1-1.17.165c-2.07 0-3.36-1.305-3.36-3.165 0-1.845 1.305-2.925 2.715-2.925 1.23 0 1.86.705 2.04 1.23h.06c.135-.63.75-1.26 1.65-1.26.69 0 1.125.315 1.245.465h.075V76.54h-8.775v-1.38h12.09v1.38h-1.62v8.52H94.21v-5.1c-.135-.315-.54-.675-1.11-.675-.66 0-1.14.495-1.14 1.32v.51h-1.59v-.51c0-.9-.48-1.26-1.08-1.26-.6 0-1.17.45-1.17 1.35 0 1.095.765 1.71 1.74 1.71.3 0 .615-.06.885-.18l.21 1.5zm16.749-1.815l.045-.015c0-.27-.12-1.11-.12-2.775v-2.58h-3.57v.075c.45.435 1.305 1.71 1.35 3.495.99.315 1.815 1.065 2.295 1.8zm3.195-5.37h-1.605v8.52h-1.59c-.315-1.395-1.275-2.805-2.55-3.435-.33.765-.915 1.095-1.44 1.095-.675 0-1.245-.42-1.245-1.185 0-.72.495-1.335 1.32-1.53-.075-1.455-.975-2.7-1.83-3.195v-.27h-.795v-1.38h9.735v1.38zm-4.575 12.375c.81 0 1.275-.735 1.275-1.695v-.21a3.074 3.074 0 0 0-1.245-.285c-.795 0-1.275.45-1.275 1.14 0 .63.495 1.05 1.245 1.05zm4.635 1.005c-.585-.69-1.17-1.335-1.785-1.875-.285 1.29-1.155 2.22-2.895 2.22-1.725 0-2.79-1.065-2.79-2.415 0-1.5 1.155-2.475 2.61-2.475.525 0 1.02.075 1.5.225v-1.29h1.68v2.1c1.035.675 1.965 1.62 2.805 2.595l-1.125.915zm2.472-8.055l-1.545.645c-.405-.375-.69-.915-.69-1.65 0-1.65 1.17-2.625 2.88-2.625 1.59 0 2.76.9 3.435 2.1h.06c-.045-.39-.135-1.23-.135-2.445v-1.35h-7.125v-1.38h10.455v1.38h-1.605v8.52h-1.725v-.18c0-2.22-1.305-5.07-3.27-5.07-.78 0-1.23.39-1.23 1.065 0 .42.195.765.495.99zm8.415-7.965v-.255h1.65v1.515h1.62v1.38h-1.62v8.52h-1.71V78.1c0-1.245-.465-1.56-1.35-1.56h-.27v-1.38h.675c.72 0 1.05.33 1.215.525h.09c-.15-.39-.3-1.02-.3-1.785zm21.177 4.065c.555 1.08 1.2 1.905 3.21 1.905h.585l.63 1.26c-.495.87-.81 2.07-.81 3.375v2.145h-1.575V84.4c0-1.29.33-2.415.63-3.06-1.59-.15-2.97-.63-3.735-2.025-.585.42-1.2.99-1.2 1.455 0 .3.195.465.69.51l1.695.18c.48.465.84 1.17.84 1.965 0 1.425-1.125 2.835-3.285 2.835-1.695 0-3.075-.885-3.96-2.205-.525.375-1.245.615-2.13.615-2.805 0-4.755-2.46-5.055-5.355l1.575-.555c.18 2.4 1.5 4.35 3.465 4.35 1.08 0 1.59-.6 1.59-1.23 0-.315-.09-.495-.18-.615l-1.215-.12c-1.23-.135-1.89-.795-1.89-1.77 0-1.14.93-2.145 1.935-2.835h-5.985v-1.38h19.425v1.38h-10.935c.42 1.005 1.425 1.425 3.315 1.425h2.37zm-2.355 6.735c1.095 0 1.605-.6 1.605-1.23 0-.315-.105-.51-.195-.645l-1.245-.12c-1.245-.12-1.89-.75-1.89-1.695 0-.6.3-1.2.72-1.71-1.77-.075-3.105-.81-3.585-1.83-.795.54-1.395 1.185-1.395 1.725 0 .3.18.465.675.51l1.695.18c.48.465.84 1.155.84 1.95 0 .255-.03.495-.105.735.585 1.26 1.59 2.13 2.88 2.13zm-6.465-10.935c-1.14-.915-2.7-1.53-4.2-1.53-1.41 0-2.16.81-2.16 1.98v.945h1.605v1.38h-1.605v8.52h-1.71v-8.52h-1.62v-1.38h1.62v-1.065c0-1.86 1.35-3.39 3.84-3.39 2.19 0 4.065.915 5.205 1.845l-.975 1.215zM155.11 85.06h-1.725v-2.58c0-1.26.24-2.235.48-2.865-1.02.66-2.235 1.905-3.03 3.135l-1.65-.63v-5.58h-1.515v-1.38h9.15v1.38h-5.91v3.645c.705-.87 2.13-2.01 3.42-2.505l1.365.795c-.42 1.155-.585 2.685-.585 4.005v2.58zM16.015 62.35l.045-.015c0-.27-.12-1.11-.12-2.775v-2.58h-3.57v.075c.45.435 1.305 1.71 1.35 3.495.99.315 1.815 1.065 2.295 1.8zm3.195-5.37h-1.605v8.52h-1.59c-.315-1.395-1.275-2.805-2.55-3.435-.33.765-.915 1.095-1.44 1.095-.675 0-1.245-.42-1.245-1.185 0-.72.495-1.335 1.32-1.53-.075-1.455-.975-2.7-1.83-3.195v-.27h-.795V55.6h9.735v1.38zm3.522 6.54c.54.135 1.095.36 2.07.93l1.26.75-1.155 1.155c-3.345-2.025-3.72-2.325-5.085-2.445v-1.395h1.005c2.025 0 3.03-.765 3.03-1.98 0-.81-.495-1.38-1.305-1.38-.6 0-1.02.36-1.02.915 0 .345.195.66.6.84l-1.155.87c-.765-.33-1.155-1.05-1.155-1.845 0-1.275 1.035-2.31 2.73-2.31 1.785 0 2.97 1.23 2.97 2.94 0 1.74-1.2 2.685-2.79 2.895v.06zm-4.125-6.54V55.6h8.13v1.38h-8.13zm9.21-2.64v-.255h1.65V55.6h1.62v1.38h-1.62v8.52h-1.71v-6.96c0-1.245-.465-1.56-1.35-1.56h-.27V55.6h.675c.72 0 1.05.33 1.215.525h.09c-.15-.39-.3-1.02-.3-1.785zm5.352 3.36c1.005.225 1.77.9 2.175 2.115l2.13-1.425c-.465-.885-1.245-1.455-2.355-1.455-.96 0-1.605.45-1.95.765zm-.465 3.87l1.395-.93c-.255-.735-.675-1.575-1.665-1.785a1.929 1.929 0 0 0-.525-.075l-.84-1.215c.69-.99 2.055-2.085 3.945-2.085 1.755 0 2.775.93 3.225 1.62l.045-.03c-.27-.765-.315-1.755-.315-2.535v-.45h1.71V55.6h1.62v1.38h-1.62v8.52h-1.695v-4.695c0-.33-.015-.66-.06-.96l-4.395 2.97-.825-1.245zm13.782 4.35c0-.645.465-1.05 1.05-1.05s1.035.405 1.035 1.05-.45 1.065-1.035 1.065-1.05-.42-1.05-1.065zm4.26-8.94h-5.715V55.6h9.03v1.38h-1.62v7.185l.69.42-1.125 1.14-6.06-3.69v-1.41c.735-.765 2.715-2.28 4.8-2.88v-.765zm0 2.4c-1.23.465-2.58 1.41-3.06 1.92l3.165 1.935h.06c-.12-.615-.165-1.665-.165-2.595v-1.26zm-.36-5.175c-1.14-.915-2.7-1.53-4.2-1.53-1.41 0-2.16.81-2.16 1.98v.945h1.605v1.38h-1.605v8.52h-1.71v-8.52h-1.62V55.6h1.62v-1.065c0-1.86 1.35-3.39 3.84-3.39 2.19 0 4.065.915 5.205 1.845l-.975 1.215zm8.562 4.845c1.38.495 2.22 1.2 2.22 2.655 0 1.845-1.635 3.87-3.825 3.87-1.53 0-2.325-.87-2.325-2.19V56.98h-1.56V55.6h8.64v1.38h-5.52v.195c0 .72.42 1.17 1.56 1.575l.81.3zm-2.355.555c0 .045.09.825.09 2.115v1.665c0 .405.225.675.735.675.885 0 2.1-1.095 2.1-2.355 0-.57-.315-.93-1.11-1.215l-.63-.225c-.615-.225-.93-.465-1.125-.66h-.06zm6.585-5.265v-.255h1.65V55.6h1.62v1.38h-1.62v8.52h-1.71v-6.96c0-1.245-.465-1.56-1.35-1.56h-.27V55.6h.675c.72 0 1.05.33 1.215.525h.09c-.15-.39-.3-1.02-.3-1.785zm8.187 9.825a3.86 3.86 0 0 1-1.17.165c-2.07 0-3.36-1.305-3.36-3.165 0-1.845 1.305-2.925 2.715-2.925 1.23 0 1.86.705 2.04 1.23h.06c.135-.63.75-1.26 1.65-1.26.69 0 1.125.315 1.245.465h.075V56.98h-8.775V55.6h12.09v1.38h-1.62v8.52H74.62v-5.1c-.135-.315-.54-.675-1.11-.675-.66 0-1.14.495-1.14 1.32v.51h-1.59v-.51c0-.9-.48-1.26-1.08-1.26-.6 0-1.17.45-1.17 1.35 0 1.095.765 1.71 1.74 1.71.3 0 .615-.06.885-.18l.21 1.5zm13.722-1.545c.63-.225 1.14-.795 1.14-1.5 0-.84-.675-1.5-1.92-1.56v4.59l.735.51-1.215 1.005-5.58-4.02V60.16c1.215-.96 2.7-1.755 4.395-2.01v-1.17h-5.31V55.6h11.4v1.38h-4.425v1.08c2.325.105 3.51 1.575 3.51 3.105 0 1.2-.645 2.175-1.65 2.685l-1.08-1.23zm-5.205-1.665l2.82 2.085h.06c-.09-.87-.12-1.92-.12-2.775v-.57c-1.065.21-2.01.72-2.76 1.26zm9.252-2.445c0-.735.555-1.29 1.245-1.29.735 0 1.29.555 1.29 1.29 0 .69-.555 1.245-1.29 1.245-.69 0-1.245-.555-1.245-1.245zm0 5.79c0-.735.555-1.29 1.245-1.29.735 0 1.29.555 1.29 1.29 0 .69-.555 1.245-1.29 1.245-.69 0-1.245-.555-1.245-1.245zm4.227-7.32h-1.305V55.6h1.365c1.05 0 1.905.39 2.43 1.05.57-.66 1.41-1.065 2.385-1.065 1.215 0 1.785.585 1.935.795h.06a9.316 9.316 0 0 1-.18-1.77v-.525h1.65V55.6h1.62v1.38h-1.62v8.52h-1.695v-6.495c0-1.29-.765-1.92-1.77-1.92-.825 0-1.56.57-1.56 1.575 0 .945.705 1.485 1.59 1.485.195 0 .39-.015.585-.09v1.515c-.045.015-.27.09-.675.09-.945 0-1.815-.39-2.34-1.08-.525.705-1.35 1.11-2.325 1.11-.435 0-.825-.12-.885-.135v-1.5c.21.09.525.12.81.12.975 0 1.56-.555 1.56-1.53 0-1.02-.6-1.665-1.635-1.665zm11.04-2.64v-.255h1.65V55.6h1.62v1.38h-1.62v8.52h-1.71v-6.96c0-1.245-.465-1.56-1.35-1.56h-.27V55.6h.675c.72 0 1.05.33 1.215.525h.09c-.15-.39-.3-1.02-.3-1.785zm3.897 5.61c0-1.29 1.02-2.325 2.7-2.325 1.785 0 2.97 1.23 2.97 2.94 0 1.74-1.185 2.67-2.79 2.88v.06c.54.135 1.095.39 2.055.96l1.275.75-1.14 1.14c-3.36-2.025-3.735-2.325-5.1-2.445v-1.395h1.005c2.025 0 3.03-.765 3.03-1.98 0-.81-.495-1.38-1.305-1.38-.6 0-1.005.36-1.005.915 0 .36.21.675.615.855l-1.17.87c-.765-.345-1.14-1.05-1.14-1.845zm-.84-8.565l1.635-.285c-.045.18-.075.375-.075.555 0 .54.255 1.08 1.44 1.08h.645c1.575 0 2.895.81 2.895 2.445 0 .135 0 .27-.03.42h1.32v1.38h-8.22V55.6h5.235c.015-.12.03-.225.03-.315 0-.825-.495-1.11-1.545-1.11h-.42c-2.28 0-2.94-1.17-2.94-2.34 0-.15.015-.3.03-.45zm15.027 8.58v-5.88h1.695V55.6h1.62v1.38h-1.62v7.155l.765.36-1.08 1.245-8.205-3.765V60.52c2.955-.165 4.08-1.125 4.08-2.25 0-.315-.09-.57-.27-.75-.375.84-1.095 1.5-2.235 1.5-1.29 0-2.28-.885-2.28-2.085 0-.6.21-1.08.405-1.335h1.65c-.225.36-.375.795-.375 1.215 0 .435.255.75.78.75.69 0 1.14-.63 1.62-1.965h.735c.765.555 1.53 1.5 1.53 2.7 0 1.575-.96 2.67-2.91 3.105v.06l4.155 1.935.045-.015a47.008 47.008 0 0 1-.105-3.42zm13.494 2.385l.045-.015c0-.27-.12-1.11-.12-2.775v-2.58h-3.57v.075c.45.435 1.305 1.71 1.35 3.495.99.315 1.815 1.065 2.295 1.8zm3.195-5.37h-1.605v8.52h-1.59c-.315-1.395-1.275-2.805-2.55-3.435-.33.765-.915 1.095-1.44 1.095-.675 0-1.245-.42-1.245-1.185 0-.72.495-1.335 1.32-1.53-.075-1.455-.975-2.7-1.83-3.195v-.27h-.795V55.6h9.735v1.38zm-4.575 12.375c.81 0 1.275-.735 1.275-1.695v-.21a3.074 3.074 0 0 0-1.245-.285c-.795 0-1.275.45-1.275 1.14 0 .63.495 1.05 1.245 1.05zm4.635 1.005c-.585-.69-1.17-1.335-1.785-1.875-.285 1.29-1.155 2.22-2.895 2.22-1.725 0-2.79-1.065-2.79-2.415 0-1.5 1.155-2.475 2.61-2.475.525 0 1.02.075 1.5.225v-1.29h1.68v2.1c1.035.675 1.965 1.62 2.805 2.595l-1.125.915zm3.462-6.84c.54.135 1.095.36 2.07.93l1.26.75-1.155 1.155c-3.345-2.025-3.72-2.325-5.085-2.445v-1.395h1.005c2.025 0 3.03-.765 3.03-1.98 0-.81-.495-1.38-1.305-1.38-.6 0-1.02.36-1.02.915 0 .345.195.66.6.84l-1.155.87c-.765-.33-1.155-1.05-1.155-1.845 0-1.275 1.035-2.31 2.73-2.31 1.785 0 2.97 1.23 2.97 2.94 0 1.74-1.2 2.685-2.79 2.895v.06zm-4.125-6.54V55.6h8.13v1.38h-8.13zm9.21-2.64v-.255h1.65V55.6h1.62v1.38h-1.62v8.52h-1.71v-6.96c0-1.245-.465-1.56-1.35-1.56h-.27V55.6h.675c.72 0 1.05.33 1.215.525h.09c-.15-.39-.3-1.02-.3-1.785zm12.807 9.45c-.015-.27-.09-.99-.09-2.655V56.98h-1.635c.18.255.345.645.345 1.245 0 .72-.3 1.575-1.14 1.98v2.145c1.095.225 2.01.825 2.52 1.44zm-3.945-4.86c.675 0 .96-.465.96-.975 0-.525-.315-.975-.99-.975h-2.685c.105.24.18.51.24.795 1.125.27 1.575 1.155 2.475 1.155zm7.095-1.95h-1.62v9.33h-1.575c-.48-1.185-1.41-2.175-2.625-2.55-.285.87-.9 1.245-1.485 1.245-.675 0-1.245-.405-1.245-1.17 0-.705.45-1.29 1.23-1.5l-.015-1.905c-1.32-.21-1.86-1.245-2.775-1.245-.51 0-.795.315-.795.75 0 .345.135.585.315.795l-1.365.495c-.285-.285-.525-.78-.525-1.395 0-.915.42-1.665 1.26-1.995-.075-.315-.18-.615-.36-.855h-1.71V55.6h13.29v1.38zm6.822 8.52h-1.725v-2.58c0-1.26.24-2.235.48-2.865-1.02.66-2.235 1.905-3.03 3.135l-1.65-.63v-5.58h-1.515V55.6h9.15v1.38h-5.91v3.645c.705-.87 2.13-2.01 3.42-2.505l1.365.795c-.42 1.155-.585 2.685-.585 4.005v2.58zm8.214-1.845c-1.44 0-2.265-.9-2.595-1.74l1.305-.81c.21.495.54 1.035 1.29 1.035.735 0 1.095-.57 1.095-1.26 0-1.095-.585-1.815-1.395-2.67l-.705-.75v-.48h-1.86V55.6h10.83v1.38h-1.59v8.52h-1.74v-3.855c0-.42-.225-.675-.63-.675-.585 0-1.02.705-1.635 1.38-.66.765-1.485 1.305-2.37 1.305zm4.68-4.14c-.03-.54-.045-1.38-.045-1.545v-.99h-3.84v.06l.555.645c.555.69.945 1.275 1.05 1.98.03.18.06.39.06.555.345-.375.855-.9 1.5-.9.33 0 .525.075.72.195zm4.38-5.175v-.255h1.65V55.6h1.62v1.38h-1.62v8.52h-1.71v-6.96c0-1.245-.465-1.56-1.35-1.56h-.27V55.6h.675c.72 0 1.05.33 1.215.525h.09c-.15-.39-.3-1.02-.3-1.785zm12.597 9.825a3.86 3.86 0 0 1-1.17.165c-2.07 0-3.36-1.305-3.36-3.165 0-1.845 1.305-2.925 2.715-2.925 1.23 0 1.86.705 2.04 1.23h.06c.135-.63.75-1.26 1.65-1.26.69 0 1.125.315 1.245.465h.075V56.98h-8.775V55.6h12.09v1.38h-1.62v8.52h-1.695v-5.1c-.135-.315-.54-.675-1.11-.675-.66 0-1.14.495-1.14 1.32v.51h-1.59v-.51c0-.9-.48-1.26-1.08-1.26-.6 0-1.17.45-1.17 1.35 0 1.095.765 1.71 1.74 1.71.3 0 .615-.06.885-.18l.21 1.5zm-5.22.315l-.795 1.365c-1.74-.6-2.895-2.265-2.895-4.71 0-1.575.465-3.06 1.05-4.155h-2.07V55.6h5.01v1.38h-1.11c-.645 1.065-1.185 2.535-1.185 4.17 0 1.68.675 2.775 1.995 3.33zm15.312-.96c.54.135 1.095.36 2.07.93l1.26.75-1.155 1.155c-3.345-2.025-3.72-2.325-5.085-2.445v-1.395h1.005c2.025 0 3.03-.765 3.03-1.98 0-.81-.495-1.38-1.305-1.38-.6 0-1.02.36-1.02.915 0 .345.195.66.6.84l-1.155.87c-.765-.33-1.155-1.05-1.155-1.845 0-1.275 1.035-2.31 2.73-2.31 1.785 0 2.97 1.23 2.97 2.94 0 1.74-1.2 2.685-2.79 2.895v.06zm-4.125-6.54V55.6h8.13v1.38h-8.13z" fill="#4A7C12"/></g></svg>