<svg xmlns="http://www.w3.org/2000/svg" width="187.682" height="112.25" viewBox="0 0 187.682 112.25">
  <g id="Group_1112" data-name="Group 1112" transform="translate(-84.333 -257.75)">
    <g id="Group_1111" data-name="Group 1111" transform="translate(37)">
      <g id="Group_1110" data-name="Group 1110">
        <g id="Group_41738" data-name="Group 41738" transform="translate(93.778 258)">
          <path id="Path_78866" data-name="Path 78866" d="M107.847.3H61.139a9.4,9.4,0,0,0-5.977,4.547L36.519,48.567S34.765,53.7,43.21,52.01c0,0,3.7-.325,6.106-6.561l7.536-16.955s3.313-5.067,8.12-2.339c0,0,1.884,1.364.195,4.872,0,0-5.327,12.668-6.236,15.071,0,0-2.144,4.677,7.211,3.313,0,0,3.508-.39,5.067-4.807l6.886-15.656s3.573-5.717,8.835-2.6c0,0,2.274,1.429.065,5.327l-7.211,16.63s-2.209,4.742,5.457,3.833c0,0,4.937,1.039,7.341-6.171L110.64,4.2C110.575,4.2,111.1.885,107.847.3Z" transform="translate(-12.897 -0.3)" fill="#98c93c" stroke="#fff" stroke-miterlimit="10" stroke-width="0.5"/>
          <path id="Path_78867" data-name="Path 78867" d="M3.007.3H49.65a9.4,9.4,0,0,1,5.977,4.547L74.335,48.632s1.819,5.132-6.691,3.443c0,0-3.7-.325-6.106-6.561L54,28.429s-3.313-5.067-8.12-2.339c0,0-1.884,1.364-.195,4.872,0,0,5.327,12.668,6.236,15.071,0,0,2.144,4.677-7.211,3.313,0,0-3.508-.39-5.067-4.807L32.825,28.883s-3.573-5.717-8.835-2.6c0,0-2.274,1.429-.065,5.327l7.211,16.63s2.209,4.742-5.457,3.833c0,0-4.937,1.039-7.341-6.171L.279,4.2A3.3,3.3,0,0,1,3.007.3Z" transform="translate(-0.239 -0.3)" fill="#3499fe" stroke="#fff" stroke-miterlimit="10" stroke-width="0.5"/>
        </g>
        <g id="Group_41740" data-name="Group 41740" transform="translate(47.333 343.013)">
          <g id="Group_41739" data-name="Group 41739" transform="translate(0 0)">
            <path id="Path_78868" data-name="Path 78868" d="M174.989,3.1l6.718,21.008L188.781,3.1h8.353V30.008H191.66V9.783l-7.038,20.226h-5.9L172.074,9.783V30.008H166.6V3.1Z" transform="translate(-166.6 -3.057)" fill="#98c93c"/>
            <path id="Path_78869" data-name="Path 78869" d="M259,30.008,270.126,3.1h6.612l11.126,26.908h-6.718l-2.595-6.221H268.313l-2.595,6.221ZM273.432,9.569l-3.839,9.42h7.678Z" transform="translate(-226.156 -3.057)" fill="#98c93c"/>
            <path id="Path_78870" data-name="Path 78870" d="M350.339,13.948h13.223v16H351.548a20.71,20.71,0,0,1-4.976-.462,9.445,9.445,0,0,1-3.341-1.635C340.386,25.678,339,21.91,339,16.579a17.068,17.068,0,0,1,2.026-8.709,8.758,8.758,0,0,1,4.088-3.7A16.272,16.272,0,0,1,351.832,3H363.6V7.8h-11.09c-2.382,0-4.123.533-5.225,1.564-1.28,1.244-1.919,3.448-1.919,6.647a18.871,18.871,0,0,0,.5,4.443,6.526,6.526,0,0,0,1.386,2.95,4.64,4.64,0,0,0,2.133,1.315,11.071,11.071,0,0,0,3.341.427h5.119v-6.4h-7.5Z" transform="translate(-277.719 -2.993)" fill="#98c93c"/>
            <path id="Path_78871" data-name="Path 78871" d="M433.591,7.863H416.6V3.1h23.425V8.041L423.638,25.21h16.387v4.8H416.6V25.352Z" transform="translate(-327.735 -3.057)" fill="#98c93c"/>
            <path id="Path_78872" data-name="Path 78872" d="M494.067,7.863H485.5V3.1h23.211V7.9h-8.922V30.044h-5.723Z" transform="translate(-372.144 -3.057)" fill="#98c93c"/>
            <path id="Path_78873" data-name="Path 78873" d="M574.947,3.022v4.8h-7.465a17.2,17.2,0,0,0-4.265.391,4.23,4.23,0,0,0-2.2,1.564,4.885,4.885,0,0,0-.818,1.6,17.348,17.348,0,0,0-.391,2.773h15.143v4.8H559.8c.213,2.31.889,3.946,2.026,4.834,1.173.924,3.128,1.351,5.9,1.351h7.216v4.8h-7.465a33.384,33.384,0,0,1-5.332-.391,9.3,9.3,0,0,1-5.794-3.164c-2.026-2.488-3.057-5.83-3.057-10.059,0-4.692,1.422-8.353,4.337-10.948A8.5,8.5,0,0,1,560.8,3.52a15.345,15.345,0,0,1,4.514-.533h9.633Z" transform="translate(-415.844 -2.979)" fill="#98c93c"/>
            <path id="Path_78874" data-name="Path 78874" d="M630.923,19.771V30.008H625.2V3.1h13.152c3.768,0,6.4.5,7.927,1.457a6.507,6.507,0,0,1,2.346,2.559,7.322,7.322,0,0,1,.853,3.483,8.157,8.157,0,0,1-1.955,5.9,7.566,7.566,0,0,1-3.2,1.919,7.78,7.78,0,0,1,2.381,1.173,5.7,5.7,0,0,1,1.457,1.848,8.558,8.558,0,0,1,.711,1.848,21.349,21.349,0,0,1,.355,2.666,19.089,19.089,0,0,0,.64,4.052h-6.434a23.843,23.843,0,0,1-.6-3.839,11.313,11.313,0,0,0-.853-3.626,4.541,4.541,0,0,0-1.884-1.955,9.294,9.294,0,0,0-4.55-.818h-4.621Zm0-4.8h8.069a5.035,5.035,0,0,0,2.844-.6,3.556,3.556,0,0,0,1.28-3.128A2.99,2.99,0,0,0,641.2,8.076a7.761,7.761,0,0,0-2.2-.249h-8.033v7.145Z" transform="translate(-462.186 -3.057)" fill="#98c93c"/>
          </g>
        </g>
      </g>
    </g>
  </g>
</svg>
